<svg width="1600" height="3780" fill="none" xmlns="http://www.w3.org/2000/svg"><path d="M1418.72 2481.96h42.15l21.06-36.49a4.808 4.808 0 016.58-1.74l36.49 21.06 36.49-21.06c2.3-1.34 5.26-.56 6.58 1.74l21.06 36.49h42.15c2.67 0 4.83 2.17 4.83 4.83v42.15l36.49 21.07a4.806 4.806 0 011.75 6.57l-21.07 36.49 21.07 36.5c1.33 2.29.55 5.25-1.75 6.57l-36.49 21.07v42.15c0 2.66-2.16 4.83-4.83 4.83h-42.15l-21.06 36.49a4.808 4.808 0 01-6.58 1.74l-36.49-21.06-36.49 21.06c-2.3 1.34-5.26.55-6.58-1.74l-21.06-36.49h-42.15c-2.67 0-4.83-2.17-4.83-4.83v-42.15l-36.49-21.07a4.808 4.808 0 01-1.75-6.57l21.07-36.5-21.07-36.49c-1.33-2.3-.55-5.25 1.75-6.57l36.49-21.07v-42.15c0-2.66 2.16-4.83 4.83-4.83zM1008 834.002s-23.33-18.372-60.273-22.94c16.626-2.764 37.383-8.862 60.143-21.565 0 0-29.192-6.678-64.507 4.844 13.748-9.531 29.738-23.81 44.588-44.886 0 0-29.355 6.362-56.079 31.787 8.189-14.422 16.305-34.034 20.334-59.433 0 0-23.55 18.102-36.336 52.219.936-16.427-.54-37.527-8.165-62.001 0 0-13.168 26.281-9.512 62.433-6.462-15.197-17.177-33.585-34.933-52.409 0 0-.175 29.251 19.2 60.282-12.583-10.956-30.413-22.99-54.786-32.43 0 0 12.891 26.506 44.243 46.267-16.237-4.581-37.639-7.934-63.917-6.115 0 0 23.331 18.373 60.276 22.94-16.626 2.764-37.386 8.865-60.142 21.565 0 0 29.193 6.678 64.511-4.847-13.749 9.529-29.742 23.811-44.596 44.89 0 0 29.354-6.362 56.082-31.787-8.189 14.424-16.305 34.036-20.336 59.437 0 0 23.55-18.102 36.338-52.227-.934 16.427.54 37.527 8.168 62.001 0 0 13.165-26.281 9.51-62.438 6.462 15.198 17.174 33.587 34.932 52.41 0 0 .175-29.249-19.194-60.279 12.58 10.956 30.409 22.99 54.777 32.427 0 0-12.888-26.502-44.239-46.266 16.234 4.577 37.637 7.933 63.913 6.115v.006zM199.999 3701.91s-23.329-18.37-60.272-22.94c16.626-2.76 37.383-8.86 60.142-21.56 0 0-29.191-6.68-64.506 4.84 13.748-9.53 29.738-23.81 44.588-44.88 0 0-29.355 6.36-56.079 31.78 8.189-14.42 16.305-34.03 20.334-59.43 0 0-23.55 18.1-36.336 52.22.936-16.43-.54-37.53-8.165-62 0 0-13.168 26.28-9.512 62.43-6.462-15.19-17.177-33.58-34.933-52.41 0 0-.175 29.25 19.2 60.29-12.583-10.96-30.413-22.99-54.785-32.43 0 0 12.89 26.5 44.242 46.26-16.237-4.58-37.639-7.93-63.917-6.11 0 0 23.33 18.37 60.276 22.94-16.626 2.76-37.386 8.86-60.142 21.56 0 0 29.193 6.68 64.51-4.84-13.748 9.52-29.741 23.81-44.595 44.89 0 0 29.354-6.37 56.082-31.79-8.189 14.42-16.305 34.03-20.336 59.44 0 0 23.55-18.11 36.338-52.23-.934 16.43.54 37.53 8.168 62 0 0 13.165-26.28 9.51-62.44 6.462 15.2 17.174 33.59 34.932 52.41 0 0 .175-29.25-19.194-60.28 12.58 10.96 30.409 22.99 54.777 32.43 0 0-12.888-26.5-44.239-46.27 16.234 4.58 37.637 7.94 63.913 6.12h-.001zM1656.86-4.684c-.38-1.221-1.57-1.991-2.81-2.005l-60.19 1.584 20.13-53.798c.44-1.185.05-2.52-.97-3.278a2.874 2.874 0 00-3.43-.022l-47.82 35.012-17.02-54.968a2.885 2.885 0 00-2.75-2.017c-1.26 0-2.38.818-2.75 2.017l-17.02 54.968-47.82-35.016a2.883 2.883 0 00-3.44.023 2.857 2.857 0 00-.96 3.277l20.12 53.798-60.18-1.584c-1.26.018-2.43.784-2.82 2.005a2.857 2.857 0 001.17 3.25l49.5 32.26-49.5 32.261a2.855 2.855 0 00-1.17 3.25c.39 1.219 1.55 1.987 2.82 2.005l60.18-1.588-20.12 53.803a2.86 2.86 0 00.96 3.28c1.02.76 2.41.772 3.44.02l47.82-35.015 17.02 54.967a2.876 2.876 0 002.75 2.019c1.26 0 2.37-.818 2.75-2.019l17.02-54.967 47.82 35.015c1.03.75 2.42.738 3.44-.02a2.863 2.863 0 00.96-3.28l-20.12-53.803 60.18 1.588c1.25-.014 2.43-.786 2.82-2.005a2.857 2.857 0 00-1.17-3.25l-49.5-32.26 49.5-32.26a2.847 2.847 0 001.16-3.247zm-57.49 33.116c-.81.533-1.3 1.43-1.3 2.394 0 .964.49 1.862 1.3 2.394l44.71 29.139-54.32-1.433c-.96-.008-1.86.423-2.41 1.2a2.841 2.841 0 00-.36 2.659l18.25 48.79-43.32-31.728a2.871 2.871 0 00-2.6-.41c-.89.289-1.58.99-1.85 1.873L1542 133.254l-15.47-49.944a2.86 2.86 0 00-1.85-1.873c-.29-.098-.6-.146-.9-.146-.6 0-1.2.19-1.7.555l-43.32 31.721 18.25-48.79a2.87 2.87 0 00-.36-2.66c-.55-.776-1.47-1.193-2.42-1.199l-54.31 1.433 44.71-29.139c.81-.533 1.3-1.43 1.3-2.394a2.87 2.87 0 00-1.3-2.394l-44.71-29.13 54.31 1.43c.93.012 1.87-.423 2.42-1.199a2.87 2.87 0 00.36-2.659l-18.25-48.789 43.32 31.724c.75.547 1.72.704 2.6.411.89-.291 1.58-.99 1.85-1.871L1542-71.603l15.47 49.944a2.87 2.87 0 001.85 1.871c.88.295 1.85.138 2.6-.41l43.32-31.72L1587-3.13c-.33.892-.2 1.887.35 2.66a2.881 2.881 0 002.42 1.198l54.31-1.43-44.71 29.134z" fill="#E8A603"/><path d="M1647.01 1171.35l-38.88-22.98 18.58-42.57c.88-2.02.66-4.37-.59-6.17-1.24-1.79-3.33-2.74-5.41-2.49l-44.35 5.4-8.79-45.9c-.42-2.18-1.92-3.95-3.94-4.64-2.02-.68-4.22-.18-5.78 1.33l-32.85 31.72-32.86-31.73c-1.55-1.5-3.76-2-5.77-1.32-2.02.69-3.52 2.46-3.94 4.63l-8.79 45.91-44.35-5.4c-2.12-.24-4.17.7-5.41 2.49a6.405 6.405 0 00-.59 6.17l18.58 42.56-38.88 22.99c-1.85 1.09-2.99 3.13-2.99 5.35 0 2.22 1.14 4.26 2.98 5.35l38.89 22.98-18.59 42.57a6.41 6.41 0 00.59 6.17c1.25 1.79 3.33 2.76 5.42 2.49l44.35-5.4 8.79 45.9c.41 2.18 1.92 3.95 3.93 4.64 2.01.68 4.22.18 5.78-1.32l32.86-31.73 32.85 31.73a5.71 5.71 0 003.97 1.62c.61 0 1.22-.1 1.81-.3 2.02-.69 3.52-2.46 3.94-4.64l8.78-45.9 44.36 5.4c.22.03.45.04.67.04h.08c3.24 0 5.86-2.75 5.86-6.14 0-1.26-.36-2.43-.98-3.4l-18.21-41.73 38.89-22.98c1.84-1.09 2.98-3.13 2.98-5.35 0-2.22-1.14-4.26-2.99-5.35z" fill="#D9271B"/><path fill-rule="evenodd" clip-rule="evenodd" d="M94.592 1598.48c-4.258-1.63-9.078.15-11.277 4.14l-46.524 84.7h.003l-.001.01-30.998 56.48-63.224-12.42-94.812-18.65c-4.411-.86-8.809 1.62-10.353 5.83a9.021 9.021 0 004.166 11.05l84.818 45.93h.006l56.565 30.61-12.776 63.03-19.124 94.54v.01a9.022 9.022 0 005.803 10.28 9.173 9.173 0 0011.113-4.21l46.473-84.72 30.998-56.48 63.224 12.42h.003l94.831 18.59h.003a9.146 9.146 0 0010.349-5.83 9.024 9.024 0 00-4.174-11.05l-84.836-45.88-56.566-30.6 12.776-63.03h.001l19.174-94.53.002.01a9.033 9.033 0 00-5.638-10.23h-.005zm-24.082 65.19l-7.314 36.05-14.103 69.58a9.017 9.017 0 004.55 9.73l62.445 33.79 32.356 17.49-36.17-7.09h.001l-69.796-13.71h.002a9.164 9.164 0 00-9.792 4.58l-34.22 62.36-17.724 32.31 7.295-36.06 14.102-69.59-.001.01a9.012 9.012 0 00-4.554-9.73l-62.444-33.79h-.001l-32.352-17.52 36.16 7.12 69.796 13.71h.004a9.18 9.18 0 009.791-4.58l34.221-62.36 17.745-32.31.003.01z" fill="#E8A603"/><path d="M-138.283 96.326h42.15l21.065-36.49a4.811 4.811 0 016.577-1.747L-32 79.153 4.49 58.088c2.3-1.334 5.256-.55 6.578 1.748l21.065 36.49h42.15a4.83 4.83 0 014.828 4.829v42.149l36.491 21.065a4.812 4.812 0 011.747 6.578l-21.065 36.491 21.065 36.49c1.334 2.3.55 5.255-1.747 6.578l-36.49 21.065v42.149a4.83 4.83 0 01-4.83 4.829H32.134l-21.065 36.49a4.812 4.812 0 01-6.577 1.748L-32 335.722l-36.49 21.065c-2.3 1.333-5.256.55-6.578-1.748l-21.065-36.49h-42.15a4.83 4.83 0 01-4.828-4.829v-42.149l-36.491-21.065a4.812 4.812 0 01-1.747-6.578l21.065-36.49-21.065-36.491c-1.334-2.3-.55-5.255 1.747-6.578l36.491-21.065v-42.149a4.83 4.83 0 014.828-4.829z" fill="#D9271B"/></svg>