<svg width="1600" height="2135" fill="none" xmlns="http://www.w3.org/2000/svg"><path d="M786.882 1467.12c-.335-1.06-1.371-1.73-2.45-1.74l-52.334 1.38 17.499-46.78a2.473 2.473 0 00-.837-2.85 2.486 2.486 0 00-2.987-.02l-41.583 30.44-14.801-47.8a2.503 2.503 0 00-2.391-1.75c-1.095 0-2.064.71-2.391 1.75l-14.801 47.8-41.583-30.45a2.516 2.516 0 00-2.987.02 2.476 2.476 0 00-.837 2.85l17.499 46.78-52.333-1.37c-1.097.01-2.117.68-2.45 1.74a2.492 2.492 0 001.015 2.83l43.046 28.05-43.046 28.05a2.484 2.484 0 00-1.015 2.83c.335 1.06 1.35 1.72 2.45 1.74l52.333-1.38-17.499 46.79a2.476 2.476 0 00.837 2.85 2.5 2.5 0 002.987.01l41.585-30.44 14.801 47.79A2.5 2.5 0 00687 1598c1.095 0 2.065-.71 2.391-1.76l14.801-47.79 41.585 30.44a2.5 2.5 0 002.987-.01 2.484 2.484 0 00.837-2.85l-17.499-46.79 52.333 1.38c1.085-.01 2.117-.68 2.45-1.74a2.489 2.489 0 00-1.015-2.83L742.824 1498l43.046-28.05a2.494 2.494 0 001.012-2.83zm-49.994 28.8a2.482 2.482 0 00-1.13 2.08c0 .84.425 1.62 1.13 2.08l38.876 25.34-47.231-1.24c-.835-.01-1.618.36-2.099 1.04a2.478 2.478 0 00-.311 2.31l15.869 42.43-37.67-27.59c-.652-.48-1.5-.61-2.265-.36-.771.25-1.367.86-1.608 1.63l-13.45 43.43-13.45-43.43a2.493 2.493 0 00-1.608-1.63 2.643 2.643 0 00-.783-.13c-.526 0-1.048.17-1.482.49l-37.67 27.58 15.869-42.43c.288-.77.173-1.64-.311-2.31-.479-.67-1.281-1.04-2.099-1.04l-47.231 1.24 38.877-25.33a2.515 2.515 0 001.13-2.09c0-.83-.426-1.61-1.13-2.08l-38.877-25.33 47.231 1.25c.807.01 1.618-.37 2.099-1.05.484-.67.599-1.53.311-2.31l-15.869-42.42 37.672 27.58a2.51 2.51 0 002.265.36 2.493 2.493 0 001.608-1.63l13.45-43.43 13.45 43.43c.241.77.837 1.38 1.608 1.63a2.48 2.48 0 002.265-.36l37.672-27.58-15.869 42.42a2.49 2.49 0 00.31 2.32c.48.67 1.279 1.06 2.1 1.04l47.231-1.24-38.88 25.33z" fill="#D9271B"/><path fill-rule="evenodd" clip-rule="evenodd" d="M249.589 1690.26a9.1 9.1 0 00-11.245 4.13l-46.228 84.76h.003-.001l-30.8 56.53-63.128-12.6-94.668-18.91a9.094 9.094 0 00-6.135 16.9l84.76 46.22h.004c0 .01.002.01.002.01l56.527 30.8-12.599 63.12-.001.01-18.857 94.68-.001.01a9.082 9.082 0 005.817 10.31 9.086 9.086 0 0011.081-4.19l46.176-84.77.001-.01 30.8-56.52 63.128 12.6h.003l94.687 18.86h.003a9.092 9.092 0 006.123-16.9l-84.779-46.18-56.527-30.8 12.599-63.13h.001l18.908-94.67.002.01a9.095 9.095 0 00-5.652-10.26l-.004-.01zm-23.877 65.27l-7.213 36.1h-.001l-13.906 69.69a9.091 9.091 0 004.565 9.76l62.401 34.01 32.334 17.61-36.116-7.2h.001l-69.69-13.91.002.01a9.092 9.092 0 00-9.761 4.56l-34.002 62.4-17.61 32.34 7.193-36.12 13.906-69.69-.001.01a9.102 9.102 0 00-4.568-9.77l-62.401-34h-.001l-32.33-17.63 36.105 7.21 69.69 13.91h.004a9.084 9.084 0 009.761-4.57l34.003-62.4 17.632-32.33.003.01z" fill="#E8A603"/><path d="M1631 1889.98s-23.33-18.38-60.27-22.94c16.62-2.77 37.38-8.87 60.14-21.57 0 0-29.19-6.68-64.51 4.84 13.75-9.53 29.74-23.81 44.59-44.88 0 0-29.35 6.36-56.08 31.79 8.19-14.43 16.31-34.04 20.34-59.44 0 0-23.55 18.1-36.34 52.22.94-16.43-.54-37.53-8.16-62 0 0-13.17 26.28-9.52 62.43-6.46-15.19-17.17-33.58-34.93-52.41 0 0-.17 29.25 19.2 60.29-12.58-10.96-30.41-22.99-54.79-32.43 0 0 12.89 26.5 44.25 46.26-16.24-4.58-37.64-7.93-63.92-6.11 0 0 23.33 18.37 60.28 22.94-16.63 2.76-37.39 8.86-60.15 21.56 0 0 29.2 6.68 64.51-4.84-13.74 9.52-29.74 23.81-44.59 44.89 0 0 29.35-6.37 56.08-31.79-8.19 14.42-16.3 34.03-20.33 59.44 0 0 23.55-18.11 36.33-52.23-.93 16.43.54 37.53 8.17 62 0 0 13.17-26.28 9.51-62.44 6.46 15.2 17.17 33.59 34.93 52.41 0 0 .18-29.25-19.19-60.28 12.58 10.96 30.41 22.99 54.78 32.43 0 0-12.89-26.5-44.24-46.27 16.23 4.58 37.63 7.94 63.91 6.12v.01z" fill="#D9271B"/><path d="M1587.86 324.492c-.38-1.221-1.57-1.991-2.81-2.005l-60.19 1.584 20.13-53.798c.44-1.185.05-2.52-.97-3.278a2.874 2.874 0 00-3.43-.022l-47.82 35.012-17.02-54.968A2.886 2.886 0 001473 245c-1.26 0-2.38.818-2.75 2.017l-17.02 54.968-47.82-35.016a2.883 2.883 0 00-3.44.022 2.857 2.857 0 00-.96 3.278l20.12 53.798-60.18-1.584c-1.26.018-2.43.784-2.82 2.005a2.857 2.857 0 001.17 3.25l49.5 32.26-49.5 32.261a2.855 2.855 0 00-1.17 3.25c.39 1.219 1.55 1.987 2.82 2.005l60.18-1.588-20.12 53.803a2.86 2.86 0 00.96 3.28c1.02.76 2.41.772 3.44.02l47.82-35.016 17.02 54.968A2.876 2.876 0 001473 475c1.26 0 2.37-.818 2.75-2.019l17.02-54.968 47.82 35.016c1.03.75 2.42.738 3.44-.02a2.863 2.863 0 00.96-3.28l-20.12-53.803 60.18 1.588c1.25-.014 2.43-.786 2.82-2.005a2.857 2.857 0 00-1.17-3.25l-49.5-32.261 49.5-32.26a2.847 2.847 0 001.16-3.246zm-57.49 33.116a2.87 2.87 0 00-1.3 2.394c0 .964.49 1.861 1.3 2.394l44.71 29.139-54.32-1.433c-.96-.008-1.86.423-2.41 1.199a2.843 2.843 0 00-.36 2.66l18.25 48.79-43.32-31.728a2.874 2.874 0 00-2.6-.411c-.89.29-1.58.99-1.85 1.874L1473 462.43l-15.47-49.944a2.862 2.862 0 00-1.85-1.874 2.89 2.89 0 00-2.6.409l-43.32 31.722 18.25-48.791a2.87 2.87 0 00-.36-2.659c-.55-.776-1.47-1.193-2.42-1.199l-54.31 1.432 44.71-29.138c.81-.533 1.3-1.43 1.3-2.394 0-.964-.49-1.861-1.3-2.394l-44.71-29.13 54.31 1.43c.93.012 1.87-.423 2.42-1.199.55-.772.69-1.767.36-2.659l-18.25-48.789 43.32 31.724c.75.547 1.72.704 2.6.411.89-.291 1.58-.99 1.85-1.871l15.47-49.944 15.47 49.944a2.87 2.87 0 001.85 1.871c.88.295 1.85.138 2.6-.411l43.32-31.72-18.24 48.789c-.33.892-.2 1.887.35 2.659a2.88 2.88 0 002.42 1.199l54.31-1.43-44.71 29.134z" fill="#E8A603"/><path d="M-41.283-37.111H.867l21.065-36.49a4.811 4.811 0 016.577-1.748L65-54.284l36.491-21.065c2.299-1.334 5.255-.55 6.577 1.747l21.065 36.49h42.15a4.83 4.83 0 014.828 4.83V9.866l36.491 21.065a4.812 4.812 0 011.747 6.577L193.284 74l21.065 36.491c1.334 2.299.55 5.255-1.747 6.577l-36.491 21.065v42.15a4.83 4.83 0 01-4.828 4.828h-42.15l-21.065 36.491a4.81 4.81 0 01-6.577 1.747L65 202.284l-36.49 21.065c-2.3 1.334-5.256.55-6.578-1.747L.867 185.111h-42.15a4.83 4.83 0 01-4.828-4.828v-42.15l-36.49-21.065a4.81 4.81 0 01-1.748-6.577L-63.284 74l-21.065-36.49c-1.334-2.3-.55-5.256 1.747-6.578l36.49-21.065v-42.15a4.83 4.83 0 014.83-4.828z" fill="#D9271B"/></svg>