<svg width="1600" height="3130" fill="none" xmlns="http://www.w3.org/2000/svg"><path fill-rule="evenodd" clip-rule="evenodd" d="M1614.59 2822.26a9.11 9.11 0 00-11.25 4.13l-46.22 84.76-30.8 56.53-63.13-12.6-94.67-18.91c-4.4-.87-8.79 1.6-10.32 5.82a9.098 9.098 0 004.19 11.08l84.76 46.22v.01l56.53 30.8-12.6 63.12v.01l-18.86 94.68v.01c-.87 4.4 1.6 8.78 5.82 10.31a9.083 9.083 0 0011.08-4.19l46.18-84.77v-.01l30.8-56.52 63.13 12.6 94.69 18.86a9.092 9.092 0 006.12-16.9l-84.78-46.18-56.52-30.8 12.59-63.13h.01l18.9-94.67.01.01a9.101 9.101 0 00-5.66-10.26v-.01zm-23.88 65.27l-7.21 36.1-13.91 69.69a9.095 9.095 0 004.57 9.76l62.4 34.01 32.33 17.61-36.11-7.2-69.69-13.91v.01a9.088 9.088 0 00-9.76 4.56l-34 62.4-17.61 32.34 7.19-36.12 13.91-69.69-.01.01a9.102 9.102 0 00-4.56-9.77l-62.4-34h-.01l-32.33-17.63 36.11 7.21 69.69 13.91a9.08 9.08 0 009.76-4.57l34.01-62.4 17.63-32.33v.01z" fill="#D9271B"/><path d="M170.999 2273.98s-23.329-18.38-60.272-22.94c16.626-2.77 37.383-8.87 60.142-21.57 0 0-29.191-6.68-64.506 4.84 13.748-9.53 29.738-23.81 44.588-44.88 0 0-29.355 6.36-56.08 31.79 8.19-14.43 16.306-34.04 20.335-59.44 0 0-23.55 18.1-36.336 52.22.936-16.43-.54-37.53-8.165-62 0 0-13.168 26.28-9.512 62.43-6.462-15.19-17.177-33.58-34.933-52.41 0 0-.175 29.25 19.2 60.29-12.583-10.96-30.413-22.99-54.786-32.43 0 0 12.89 26.5 44.243 46.26-16.237-4.58-37.639-7.93-63.917-6.11 0 0 23.33 18.37 60.276 22.94-16.626 2.76-37.386 8.86-60.142 21.56 0 0 29.193 6.68 64.51-4.84-13.748 9.52-29.741 23.81-44.595 44.89 0 0 29.354-6.37 56.082-31.79-8.189 14.42-16.305 34.03-20.335 59.44 0 0 23.55-18.11 36.337-52.23-.934 16.43.54 37.53 8.168 62 0 0 13.165-26.28 9.51-62.44 6.462 15.2 17.174 33.59 34.932 52.41 0 0 .175-29.25-19.194-60.28 12.58 10.96 30.409 22.99 54.777 32.43 0 0-12.888-26.5-44.239-46.27 16.234 4.58 37.637 7.94 63.913 6.12l-.001.01z" fill="#D9271B"/><path d="M282.999 1032.98s-23.329-18.38-60.272-22.94c16.626-2.77 37.383-8.87 60.142-21.57 0 0-29.191-6.678-64.506 4.844 13.748-9.53 29.738-23.81 44.588-44.886 0 0-29.355 6.362-56.079 31.787 8.189-14.422 16.305-34.034 20.334-59.433 0 0-23.55 18.102-36.336 52.219.936-16.427-.54-37.527-8.165-62.001 0 0-13.168 26.281-9.512 62.433-6.462-15.197-17.177-33.585-34.933-52.409 0 0-.175 29.251 19.2 60.283-12.583-10.957-30.413-22.99-54.786-32.431 0 0 12.891 26.506 44.243 46.267-16.237-4.581-37.639-7.934-63.917-6.115 0 0 23.331 18.372 60.276 22.942-16.626 2.76-37.386 8.86-60.142 21.56 0 0 29.193 6.68 64.511-4.84-13.749 9.52-29.742 23.81-44.596 44.89 0 0 29.354-6.37 56.082-31.79-8.189 14.42-16.305 34.03-20.336 59.44 0 0 23.55-18.11 36.338-52.23-.934 16.43.54 37.53 8.168 62 0 0 13.165-26.28 9.51-62.44 6.462 15.2 17.174 33.59 34.932 52.41 0 0 .175-29.25-19.194-60.28 12.58 10.96 30.409 22.99 54.777 32.43 0 0-12.888-26.5-44.239-46.27 16.234 4.58 37.637 7.94 63.913 6.12l-.001.01z" fill="#E8A603"/><path d="M1555.86 1336.49c-.38-1.22-1.57-1.99-2.81-2l-60.19 1.58 20.13-53.8c.44-1.18.05-2.52-.97-3.28a2.88 2.88 0 00-3.43-.02l-47.82 35.01-17.02-54.96a2.887 2.887 0 00-2.75-2.02c-1.26 0-2.38.82-2.75 2.02l-17.02 54.96-47.82-35.01a2.895 2.895 0 00-3.44.02c-1.01.76-1.4 2.09-.96 3.28l20.12 53.8-60.18-1.59c-1.26.02-2.43.79-2.82 2.01-.38 1.22.09 2.55 1.17 3.25l49.5 32.26-49.5 32.26c-1.08.7-1.55 2.03-1.17 3.25.39 1.22 1.55 1.99 2.82 2l60.18-1.58-20.12 53.8c-.44 1.18-.05 2.52.96 3.28 1.02.76 2.41.77 3.44.02l47.82-35.02 17.02 54.97c.37 1.2 1.49 2.02 2.75 2.02s2.37-.82 2.75-2.02l17.02-54.97 47.82 35.02c1.03.75 2.42.74 3.44-.02 1.01-.77 1.4-2.1.96-3.28l-20.12-53.8 60.18 1.58c1.25-.01 2.43-.78 2.82-2 .38-1.22-.09-2.55-1.17-3.25l-49.5-32.26 49.5-32.26c1.07-.7 1.55-2.03 1.16-3.25zm-57.49 33.12c-.81.53-1.3 1.43-1.3 2.39 0 .97.49 1.86 1.3 2.4l44.71 29.13-54.32-1.43c-.96-.01-1.86.43-2.41 1.2-.56.77-.69 1.77-.36 2.66l18.25 48.79-43.32-31.73c-.75-.55-1.72-.7-2.6-.41-.89.29-1.58.99-1.85 1.88l-15.47 49.94-15.47-49.94a2.87 2.87 0 00-2.75-2.02c-.6 0-1.2.19-1.7.55l-43.32 31.72 18.25-48.79c.33-.89.19-1.88-.36-2.66-.55-.77-1.47-1.19-2.42-1.2l-54.31 1.44 44.71-29.14c.81-.53 1.3-1.43 1.3-2.4 0-.96-.49-1.86-1.3-2.39l-44.71-29.13 54.31 1.43c.93.01 1.87-.42 2.42-1.2.55-.77.69-1.77.36-2.66l-18.25-48.79 43.32 31.73c.75.54 1.72.7 2.6.41.89-.29 1.58-.99 1.85-1.87l15.47-49.95 15.47 49.95c.28.88.96 1.58 1.85 1.87.88.29 1.85.14 2.6-.41l43.32-31.72-18.24 48.79c-.33.89-.2 1.88.35 2.66.55.77 1.47 1.22 2.42 1.19l54.31-1.43-44.71 29.14z" fill="#D9271B"/><path d="M114.864 2956.49c-.385-1.22-1.576-1.99-2.818-2l-60.183 1.58 20.124-53.8a2.852 2.852 0 00-.963-3.28 2.888 2.888 0 00-3.435-.02l-47.82 35.01-17.022-54.96a2.88 2.88 0 00-5.498 0l-17.022 54.96-47.82-35.01a2.888 2.888 0 00-3.435.02 2.848 2.848 0 00-.963 3.28l20.124 53.8-60.183-1.59c-1.262.02-2.435.79-2.818 2.01a2.858 2.858 0 001.167 3.25l49.503 32.26-49.503 32.26a2.855 2.855 0 00-1.167 3.25c.385 1.22 1.552 1.99 2.818 2l60.183-1.58-20.124 53.8a2.852 2.852 0 00.963 3.28c1.016.76 2.412.77 3.435.02l47.822-35.02 17.022 54.97a2.88 2.88 0 005.498 0l17.022-54.97 47.822 35.02c1.023.75 2.419.74 3.435-.02a2.856 2.856 0 00.963-3.28l-20.124-53.8 60.183 1.58c1.248-.01 2.435-.78 2.818-2a2.855 2.855 0 00-1.167-3.25L64.198 2992l49.503-32.26a2.859 2.859 0 001.163-3.25zm-57.493 33.12c-.81.53-1.3 1.43-1.3 2.39 0 .97.49 1.86 1.3 2.4l44.708 29.13-54.316-1.43a2.92 2.92 0 00-2.414 1.2 2.852 2.852 0 00-.357 2.66l18.249 48.79-43.32-31.73a2.886 2.886 0 00-4.454 1.47l-15.468 49.94-15.468-49.94a2.87 2.87 0 00-2.749-2.02 2.92 2.92 0 00-1.705.55l-43.32 31.72 18.25-48.79c.33-.89.198-1.88-.358-2.66-.551-.77-1.474-1.19-2.414-1.2l-54.316 1.44 44.708-29.14c.81-.53 1.3-1.43 1.3-2.4 0-.96-.49-1.86-1.3-2.39l-44.708-29.13 54.316 1.43c.928.01 1.86-.42 2.414-1.2a2.85 2.85 0 00.357-2.66l-18.249-48.79 43.323 31.73c.75.54 1.718.7 2.605.41a2.876 2.876 0 001.849-1.87L0 2889.57l15.468 49.95c.276.88.962 1.58 1.849 1.87.882.29 1.857.14 2.604-.41l43.323-31.72-18.25 48.79a2.856 2.856 0 002.772 3.85l54.316-1.43-44.712 29.14z" fill="#E8A603"/><path fill-rule="evenodd" clip-rule="evenodd" d="M1601.59 90.263a9.1 9.1 0 00-11.25 4.128l-46.22 84.758v.005l-30.8 56.525-63.13-12.599-94.67-18.908a9.094 9.094 0 00-10.32 5.815 9.095 9.095 0 004.19 11.08l84.76 46.228v-.002.004l56.53 30.8-12.6 63.127v.003l-18.86 94.686v.003a9.096 9.096 0 005.82 10.316 9.092 9.092 0 0011.08-4.187l46.18-84.777v-.003l30.8-56.526 63.13 12.599v.001l94.69 18.857v.001a9.093 9.093 0 006.12-16.899l-84.78-46.177-56.52-30.8 12.59-63.127.01-.003 18.9-94.667.01.004a9.1 9.1 0 00-5.66-10.26v-.005zm-23.88 65.263l-7.21 36.105v.003l-13.91 69.689a9.098 9.098 0 004.57 9.761l62.4 34.003 32.33 17.61-36.11-7.193v-.003l-69.69-13.907v.004a9.083 9.083 0 00-9.76 4.565l-34 62.4-17.61 32.334 7.19-36.115 13.91-69.69-.01.003a9.089 9.089 0 00-4.56-9.761l-62.4-34.003-.01.003-32.33-17.632 36.11 7.213 69.69 13.906v-.002a9.092 9.092 0 009.76-4.564l34.01-62.401 17.63-32.329v.001z" fill="#E8A603"/><path d="M-62.283 38.889h42.15L.932 2.399A4.811 4.811 0 017.509.65L44 21.716 80.49.651c2.3-1.334 5.256-.55 6.578 1.747l21.065 36.49h42.15a4.83 4.83 0 014.828 4.83v42.149l36.491 21.065a4.811 4.811 0 011.747 6.577L172.284 150l21.065 36.491c1.334 2.299.55 5.255-1.747 6.577l-36.491 21.065v42.15a4.83 4.83 0 01-4.828 4.828h-42.15l-21.065 36.491a4.812 4.812 0 01-6.577 1.747L44 278.284 7.51 299.349c-2.3 1.334-5.256.55-6.578-1.747l-21.065-36.491h-42.15a4.83 4.83 0 01-4.828-4.828v-42.15l-36.491-21.065a4.811 4.811 0 01-1.747-6.577L-84.284 150l-21.065-36.491c-1.334-2.299-.55-5.255 1.747-6.577l36.49-21.065v-42.15a4.83 4.83 0 014.83-4.828z" fill="#D9271B"/></svg>