<svg width="480" height="2788" fill="none" xmlns="http://www.w3.org/2000/svg"><path d="M281 21.494s-5.833-4.593-15.068-5.735c4.156-.691 9.345-2.216 15.035-5.392 0 0-7.298-1.669-16.127 1.211 3.438-2.382 7.435-5.952 11.147-11.22 0 0-7.338 1.59-14.019 7.946 2.047-3.606 4.076-8.509 5.083-14.859 0 0-5.887 4.526-9.084 13.055.234-4.106-.135-9.381-2.041-15.5 0 0-3.292 6.57-2.378 15.608-1.616-3.799-4.294-8.396-8.733-13.102 0 0-.044 7.313 4.8 15.07-3.146-2.738-7.604-5.747-13.697-8.107 0 0 3.223 6.626 11.061 11.567-4.059-1.145-9.41-1.984-15.979-1.53 0 0 5.832 4.594 15.069 5.736-4.157.691-9.347 2.216-15.036 5.391 0 0 7.298 1.67 16.128-1.211-3.437 2.382-7.436 5.952-11.149 11.222 0 0 7.339-1.59 14.021-7.947-2.048 3.606-4.077 8.51-5.084 14.86 0 0 5.887-4.526 9.084-13.057-.234 4.107.135 9.382 2.042 15.5 0 0 3.291-6.57 2.377-15.61 1.616 3.8 4.294 8.397 8.734 13.103 0 0 .043-7.312-4.799-15.07 3.145 2.74 7.602 5.748 13.694 8.107 0 0-3.222-6.626-11.059-11.567 4.058 1.145 9.409 1.984 15.978 1.53z" fill="#E8A603"/><path d="M497.949 2781.38c-.142-.45-.582-.74-1.041-.74l-22.242.58 7.438-19.88a1.05 1.05 0 00-.356-1.21c-.376-.28-.89-.29-1.27-.01l-17.672 12.94-6.291-20.31a1.06 1.06 0 00-1.016-.75c-.465 0-.877.3-1.016.75l-6.291 20.31-17.672-12.94a1.05 1.05 0 00-1.27.01 1.05 1.05 0 00-.356 1.21l7.437 19.88-22.241-.58c-.466 0-.9.28-1.041.74-.142.45.034.94.431 1.2l18.294 11.92-18.294 11.92c-.397.26-.574.75-.431 1.2.142.45.573.74 1.041.74l22.241-.58-7.437 19.88c-.163.44-.019.93.356 1.21.376.28.892.29 1.27.01l17.673-12.94 6.291 20.31c.138.45.55.75 1.016.75.465 0 .877-.3 1.016-.75l6.29-20.31 17.674 12.94c.378.28.894.27 1.269-.01.375-.28.52-.77.356-1.21l-7.437-19.88 22.242.58c.461 0 .899-.29 1.041-.74.142-.45-.034-.94-.431-1.2l-18.295-11.92 18.295-11.92c.395-.26.572-.75.429-1.2zm-21.247 12.24c-.299.19-.48.52-.48.88s.181.69.48.89l16.522 10.76-20.073-.53c-.355 0-.687.16-.892.45-.205.28-.254.65-.132.98l6.744 18.03-16.009-11.72a1.072 1.072 0 00-.963-.16 1.07 1.07 0 00-.683.7l-5.717 18.45-5.716-18.45a1.072 1.072 0 00-.683-.7c-.11-.03-.221-.05-.333-.05-.224 0-.445.07-.63.21l-16.01 11.72 6.745-18.03c.122-.33.073-.7-.132-.99a1.108 1.108 0 00-.893-.44l-20.073.53 16.523-10.77c.299-.19.48-.53.48-.88 0-.36-.181-.69-.48-.89l-16.523-10.76 20.073.53c.343 0 .688-.16.893-.45.205-.28.254-.65.132-.98l-6.745-18.03 16.011 11.72c.277.21.635.26.963.16.327-.11.581-.37.683-.7l5.716-18.45 5.716 18.45c.103.33.356.59.684.7.326.1.686.05.962-.16l16.011-11.72-6.744 18.03c-.123.33-.074.7.132.98.203.29.543.46.892.45l20.073-.53-16.524 10.77z" fill="#D9271B"/><path fill-rule="evenodd" clip-rule="evenodd" d="M73.05 1859.07a2.271 2.271 0 00-2.81 1.03l-11.557 21.19-7.7 14.13-15.782-3.15-23.667-4.73a2.27 2.27 0 00-2.58 1.46 2.276 2.276 0 001.046 2.77l21.19 11.55h.001l14.133 7.7-3.15 15.79-4.715 23.67a2.272 2.272 0 004.224 1.53l11.545-21.19 7.7-14.14 15.782 3.15 23.672 4.72h.001a2.277 2.277 0 001.531-4.23l-21.195-11.54-14.132-7.7 3.15-15.78 4.727-23.67a2.266 2.266 0 00-1.412-2.56h-.001zm-5.968 16.31l-1.804 9.03-3.477 17.42c-.194.98.269 1.97 1.142 2.44l15.6 8.5 8.084 4.4-9.03-1.79-17.422-3.48a2.27 2.27 0 00-2.44 1.14l-8.5 15.6-4.402 8.08 1.798-9.02 3.476-17.43a2.278 2.278 0 00-1.142-2.44l-15.6-8.5-8.083-4.4 9.026 1.8 17.423 3.48v-.01c.976.2 1.965-.26 2.441-1.14l8.5-15.6 4.409-8.08z" fill="#E8A603"/><path d="M404.929.722h10.537l5.267-9.122a1.202 1.202 0 011.644-.437l9.123 5.266 9.122-5.266a1.203 1.203 0 011.645.437l5.266 9.122h10.537c.667 0 1.208.54 1.208 1.207v10.538l9.122 5.266c.575.333.771 1.07.437 1.644l-5.266 9.123 5.266 9.123a1.202 1.202 0 01-.437 1.644l-9.122 5.266v10.538c0 .666-.541 1.207-1.208 1.207h-10.537l-5.266 9.122c-.334.575-1.07.77-1.645.437l-9.122-5.266-9.123 5.266a1.202 1.202 0 01-1.644-.437l-5.267-9.122h-10.537c-.666 0-1.207-.54-1.207-1.207V44.533l-9.123-5.266a1.203 1.203 0 01-.437-1.644l5.267-9.123-5.267-9.123a1.203 1.203 0 01.437-1.644l9.123-5.266V1.929c0-.666.541-1.207 1.207-1.207z" fill="#D9271B"/><path fill-rule="evenodd" clip-rule="evenodd" d="M73.05 8.066a2.273 2.273 0 00-2.81 1.032l-11.557 21.19-7.7 14.132-15.782-3.15-23.667-4.727A2.273 2.273 0 0010 40.767l21.19 11.557h.001l14.133 7.7-3.15 15.782-4.715 23.672v.001a2.272 2.272 0 004.224 1.532l11.545-21.194 7.7-14.132 15.782 3.15 23.672 4.714h.001a2.273 2.273 0 001.531-4.225L80.719 57.78l-14.132-7.7 3.15-15.782 4.727-23.667a2.274 2.274 0 00-1.412-2.564l-.001-.001zM67.083 24.38l-1.804 9.027-3.477 17.423a2.274 2.274 0 001.142 2.44l15.6 8.5 8.084 4.403-9.03-1.798-17.422-3.478v.002a2.271 2.271 0 00-2.44 1.14l-8.5 15.6-4.402 8.084 1.798-9.029 3.476-17.422a2.272 2.272 0 00-1.142-2.44l-15.6-8.5-8.083-4.408 9.026 1.804 17.423 3.476a2.274 2.274 0 002.441-1.141l8.5-15.6 4.409-8.083z" fill="#E8A603"/><path d="M474.949 918.377c-.142-.451-.582-.735-1.041-.741l-22.242.586 7.438-19.882a1.052 1.052 0 00-.356-1.211 1.065 1.065 0 00-1.27-.009l-17.672 12.94-6.291-20.315a1.064 1.064 0 00-2.032 0l-6.291 20.315-17.672-12.941a1.064 1.064 0 00-1.27.008 1.054 1.054 0 00-.356 1.212l7.437 19.881-22.241-.585c-.466.007-.9.29-1.041.741-.142.451.034.942.431 1.201l18.294 11.922-18.294 11.923a1.054 1.054 0 00-.431 1.201c.142.45.573.734 1.041.741l22.241-.587-7.437 19.884c-.163.438-.019.931.356 1.212.376.281.892.285 1.27.007l17.673-12.94 6.291 20.314a1.065 1.065 0 002.032 0l6.29-20.314 17.674 12.94c.378.277.894.273 1.269-.007.375-.283.52-.775.356-1.212l-7.437-19.884 22.242.587c.461-.005.899-.291 1.041-.741a1.056 1.056 0 00-.431-1.201l-18.295-11.923 18.295-11.922c.395-.259.572-.749.429-1.2zm-21.247 12.239c-.299.197-.48.529-.48.885s.181.688.48.885l16.522 10.768-20.073-.529a1.074 1.074 0 00-.892.443 1.055 1.055 0 00-.132.983l6.744 18.031-16.009-11.726a1.065 1.065 0 00-1.646.541l-5.717 18.457-5.716-18.457a1.056 1.056 0 00-1.016-.746c-.224 0-.445.07-.63.205l-16.01 11.723 6.745-18.031c.122-.33.073-.698-.132-.983a1.097 1.097 0 00-.893-.443l-20.073.529 16.523-10.769c.299-.196.48-.528.48-.884s-.181-.688-.48-.885l-16.523-10.766 20.073.529c.343.005.688-.156.893-.443.205-.285.254-.653.132-.983l-6.745-18.03 16.011 11.724a1.067 1.067 0 001.646-.54l5.716-18.458 5.716 18.458c.103.327.356.585.684.692.326.109.686.05.962-.152l16.011-11.723-6.744 18.031c-.123.329-.074.697.132.982.203.287.543.453.892.444l20.073-.529-16.524 10.767z" fill="#D9271B"/><path d="M404.929 1804.72h10.537l5.267-9.12a1.202 1.202 0 011.644-.44l9.123 5.27 9.122-5.27a1.211 1.211 0 011.645.44l5.266 9.12h10.537c.667 0 1.208.54 1.208 1.21v10.54l9.122 5.26c.575.34.771 1.07.437 1.65l-5.266 9.12 5.266 9.12c.334.58.138 1.32-.437 1.65l-9.122 5.26v10.54c0 .67-.541 1.21-1.208 1.21h-10.537l-5.266 9.12c-.334.58-1.07.77-1.645.44l-9.122-5.27-9.123 5.27a1.21 1.21 0 01-1.644-.44l-5.267-9.12h-10.537c-.666 0-1.207-.54-1.207-1.21v-10.54l-9.123-5.26a1.21 1.21 0 01-.437-1.65l5.267-9.12-5.267-9.12a1.209 1.209 0 01.437-1.65l9.123-5.26v-10.54c0-.67.541-1.21 1.207-1.21z" fill="#E8A603"/><path d="M28.93 953.722h10.537l5.266-9.122a1.202 1.202 0 011.644-.437l9.123 5.266 9.123-5.266a1.202 1.202 0 011.644.437l5.266 9.122h10.538c.666 0 1.207.541 1.207 1.207v10.538l9.122 5.266c.575.333.77 1.069.437 1.644l-5.266 9.123 5.266 9.123a1.202 1.202 0 01-.437 1.644l-9.122 5.266v10.537c0 .67-.54 1.21-1.207 1.21H71.533l-5.266 9.12c-.333.58-1.07.77-1.644.44l-9.123-5.27-9.123 5.27a1.21 1.21 0 01-1.644-.44l-5.266-9.12H28.929c-.666 0-1.207-.54-1.207-1.21v-10.537l-9.123-5.266a1.202 1.202 0 01-.436-1.644l5.266-9.123-5.266-9.123a1.202 1.202 0 01.436-1.644l9.123-5.266v-10.538c0-.666.54-1.207 1.207-1.207z" fill="#D9271B"/><path d="M66 2582.49s-5.833-4.59-15.068-5.73c4.156-.69 9.345-2.22 15.035-5.39 0 0-7.297-1.67-16.126 1.21 3.437-2.38 7.434-5.95 11.147-11.22 0 0-7.339 1.59-14.02 7.94 2.047-3.6 4.076-8.5 5.083-14.85 0 0-5.887 4.52-9.083 13.05.234-4.11-.135-9.38-2.042-15.5 0 0-3.292 6.57-2.378 15.61-1.615-3.8-4.294-8.4-8.733-13.1 0 0-.044 7.31 4.8 15.07-3.146-2.74-7.603-5.75-13.696-8.11 0 0 3.222 6.63 11.06 11.57-4.059-1.15-9.41-1.99-15.979-1.53 0 0 5.833 4.59 15.07 5.73-4.157.69-9.347 2.22-15.036 5.39 0 0 7.298 1.67 16.127-1.21-3.437 2.38-7.435 5.95-11.149 11.22 0 0 7.339-1.59 14.02-7.94-2.046 3.6-4.075 8.51-5.083 14.86 0 0 5.887-4.53 9.084-13.06-.233 4.11.135 9.38 2.042 15.5 0 0 3.292-6.57 2.378-15.61 1.615 3.8 4.293 8.4 8.733 13.1 0 0 .044-7.31-4.799-15.07 3.145 2.74 7.602 5.75 13.694 8.11 0 0-3.222-6.63-11.06-11.57 4.06 1.15 9.41 1.99 15.979 1.53z" fill="#E8A603"/></svg>