<svg width="1600" height="4085" fill="none" xmlns="http://www.w3.org/2000/svg"><path d="M326.999 3940.98s-23.329-18.38-60.272-22.94c16.626-2.77 37.383-8.87 60.142-21.57 0 0-29.191-6.68-64.506 4.84 13.748-9.53 29.738-23.81 44.588-44.88 0 0-29.355 6.36-56.079 31.79 8.189-14.43 16.305-34.04 20.334-59.44 0 0-23.55 18.1-36.336 52.22.936-16.43-.54-37.53-8.165-62 0 0-13.168 26.28-9.512 62.43-6.462-15.19-17.177-33.58-34.933-52.41 0 0-.175 29.25 19.2 60.29-12.583-10.96-30.413-22.99-54.786-32.43 0 0 12.891 26.5 44.243 46.26-16.237-4.58-37.639-7.93-63.917-6.11 0 0 23.331 18.37 60.276 22.94-16.626 2.76-37.386 8.86-60.142 21.56 0 0 29.193 6.68 64.511-4.84-13.749 9.52-29.742 23.81-44.596 44.89 0 0 29.354-6.37 56.082-31.79-8.189 14.42-16.305 34.03-20.336 59.44 0 0 23.55-18.11 36.338-52.23-.934 16.43.54 37.53 8.168 62 0 0 13.165-26.28 9.51-62.44 6.462 15.2 17.174 33.59 34.932 52.41 0 0 .175-29.25-19.194-60.28 12.58 10.96 30.409 22.99 54.777 32.43 0 0-12.888-26.5-44.239-46.27 16.234 4.58 37.637 7.94 63.913 6.12l-.001.01z" fill="#E8A603"/><path d="M280.84 3133.32c-.452-1.44-1.85-2.34-3.307-2.36l-70.65 1.86 23.623-63.15a3.342 3.342 0 00-1.13-3.85 3.378 3.378 0 00-4.032-.03l-56.137 41.1-19.982-64.52a3.378 3.378 0 00-3.227-2.37 3.38 3.38 0 00-3.228 2.37l-19.982 64.52-56.136-41.1a3.38 3.38 0 00-4.033.03 3.33 3.33 0 00-1.13 3.84l23.624 63.16-70.65-1.86c-1.481.02-2.858.92-3.308 2.35a3.362 3.362 0 001.37 3.82L70.637 3175l-58.112 37.87a3.345 3.345 0 00-1.37 3.81c.452 1.44 1.822 2.34 3.308 2.36l70.65-1.87-23.624 63.16a3.34 3.34 0 001.13 3.85 3.38 3.38 0 004.032.03l56.14-41.11 19.981 64.53A3.38 3.38 0 00146 3310c1.478 0 2.787-.96 3.228-2.37l19.981-64.53 56.139 41.11c1.201.88 2.84.86 4.033-.03a3.345 3.345 0 001.13-3.85l-23.624-63.16 70.65 1.87c1.465-.02 2.858-.92 3.308-2.36a3.345 3.345 0 00-1.37-3.81L221.363 3175l58.112-37.87a3.349 3.349 0 001.365-3.81zm-67.492 38.87a3.373 3.373 0 00-1.525 2.81c0 1.13.574 2.19 1.525 2.81l52.483 34.21-63.761-1.68c-1.128-.01-2.185.49-2.834 1.4a3.359 3.359 0 00-.419 3.13l21.422 57.27-50.854-37.24a3.38 3.38 0 00-5.229 1.71l-18.157 58.63-18.158-58.63a3.369 3.369 0 00-2.17-2.2 3.508 3.508 0 00-1.057-.17 3.45 3.45 0 00-2.001.65l-50.855 37.24 21.423-57.27a3.34 3.34 0 00-.419-3.12c-.647-.92-1.73-1.41-2.834-1.41l-63.762 1.68 52.484-34.21a3.36 3.36 0 001.525-2.81c0-1.13-.575-2.18-1.525-2.81l-52.484-34.19 63.762 1.68c1.09.01 2.184-.5 2.834-1.41.652-.91.808-2.08.42-3.12l-21.424-57.28 50.857 37.24c.88.65 2.018.83 3.058.49a3.41 3.41 0 002.171-2.2l18.157-58.63 18.158 58.63a3.377 3.377 0 005.228 1.71l50.857-37.23-21.423 57.27a3.34 3.34 0 00.419 3.12 3.388 3.388 0 002.835 1.41l63.761-1.68-52.488 34.2zM1700 2327.98s-23.33-18.38-60.27-22.94c16.62-2.77 37.38-8.87 60.14-21.57 0 0-29.19-6.68-64.51 4.84 13.75-9.53 29.74-23.81 44.59-44.88 0 0-29.35 6.36-56.08 31.79 8.19-14.43 16.31-34.04 20.34-59.44 0 0-23.55 18.1-36.34 52.22.94-16.43-.54-37.53-8.16-62 0 0-13.17 26.28-9.52 62.43-6.46-15.19-17.17-33.58-34.93-52.41 0 0-.17 29.25 19.2 60.29-12.58-10.96-30.41-22.99-54.79-32.43 0 0 12.89 26.5 44.25 46.26-16.24-4.58-37.64-7.93-63.92-6.11 0 0 23.33 18.37 60.28 22.94-16.63 2.76-37.39 8.86-60.15 21.56 0 0 29.2 6.68 64.51-4.84-13.74 9.52-29.74 23.81-44.59 44.89 0 0 29.35-6.37 56.08-31.79-8.19 14.42-16.3 34.03-20.33 59.44 0 0 23.55-18.11 36.33-52.23-.93 16.43.54 37.53 8.17 62 0 0 13.17-26.28 9.51-62.44 6.46 15.2 17.17 33.59 34.93 52.41 0 0 .18-29.25-19.19-60.28 12.58 10.96 30.41 22.99 54.78 32.43 0 0-12.89-26.5-44.24-46.27 16.23 4.58 37.63 7.94 63.91 6.12v.01z" fill="#D9271B"/><path d="M1477 896.975s-23.33-18.372-60.27-22.94c16.62-2.764 37.38-8.862 60.14-21.565 0 0-29.19-6.678-64.51 4.844 13.75-9.53 29.74-23.81 44.59-44.886 0 0-29.35 6.362-56.08 31.787 8.19-14.422 16.31-34.034 20.34-59.433 0 0-23.55 18.102-36.34 52.219.94-16.427-.54-37.527-8.16-62.001 0 0-13.17 26.281-9.52 62.433-6.46-15.197-17.17-33.585-34.93-52.409 0 0-.17 29.251 19.2 60.283-12.58-10.957-30.41-22.99-54.79-32.431 0 0 12.89 26.506 44.25 46.267-16.24-4.581-37.64-7.934-63.92-6.115 0 0 23.33 18.373 60.28 22.94-16.63 2.764-37.39 8.865-60.15 21.565 0 0 29.2 6.678 64.51-4.847-13.74 9.529-29.74 23.812-44.59 44.89 0 0 29.35-6.362 56.08-31.787-8.19 14.424-16.3 34.036-20.33 59.437 0 0 23.55-18.102 36.33-52.227-.93 16.427.54 37.527 8.17 62.001 0 0 13.17-26.281 9.51-62.437 6.46 15.197 17.17 33.586 34.93 52.409 0 0 .18-29.249-19.19-60.279 12.58 10.957 30.41 22.99 54.78 32.427 0 0-12.89-26.502-44.24-46.266 16.23 4.577 37.63 7.933 63.91 6.115v.006z" fill="#E8A603"/><path d="M199.864 1530.49c-.385-1.22-1.576-1.99-2.818-2l-60.183 1.58 20.124-53.8a2.852 2.852 0 00-.963-3.28 2.888 2.888 0 00-3.435-.02l-47.82 35.01-17.022-54.96a2.88 2.88 0 00-5.498 0l-17.022 54.96-47.82-35.01a2.888 2.888 0 00-3.435.02 2.848 2.848 0 00-.963 3.28l20.124 53.8-60.183-1.59c-1.262.02-2.435.79-2.818 2.01a2.858 2.858 0 001.167 3.25L20.802 1566l-49.503 32.26a2.855 2.855 0 00-1.167 3.25c.385 1.22 1.552 1.99 2.818 2l60.183-1.58-20.124 53.8a2.852 2.852 0 00.963 3.28c1.016.76 2.412.77 3.435.02l47.822-35.02 17.022 54.97a2.88 2.88 0 005.498 0l17.022-54.97 47.822 35.02c1.023.75 2.419.74 3.435-.02a2.856 2.856 0 00.963-3.28l-20.124-53.8 60.183 1.58c1.248-.01 2.435-.78 2.818-2a2.855 2.855 0 00-1.167-3.25L149.198 1566l49.503-32.26a2.859 2.859 0 001.163-3.25zm-57.493 33.12a2.86 2.86 0 00-1.3 2.39c0 .97.489 1.86 1.3 2.4l44.708 29.13-54.316-1.43c-.96-.01-1.861.43-2.414 1.2a2.85 2.85 0 00-.357 2.66l18.249 48.79-43.32-31.73c-.75-.55-1.725-.7-2.605-.41-.887.29-1.573.99-1.849 1.88l-15.468 49.94-15.468-49.94a2.87 2.87 0 00-2.749-2.02 2.92 2.92 0 00-1.705.55l-43.32 31.72 18.25-48.79c.33-.89.198-1.88-.358-2.66-.551-.77-1.474-1.19-2.414-1.2l-54.316 1.44 44.708-29.14c.81-.53 1.3-1.43 1.3-2.4 0-.96-.49-1.86-1.3-2.39l-44.708-29.13 54.316 1.43c.928.01 1.86-.42 2.414-1.2a2.85 2.85 0 00.357-2.66l-18.249-48.79 43.322 31.73c.75.54 1.72.7 2.606.41a2.876 2.876 0 001.849-1.87L85 1463.57l15.468 49.95c.276.88.962 1.58 1.849 1.87.882.29 1.857.14 2.605-.41l43.322-31.72-18.249 48.79c-.331.89-.199 1.88.357 2.66.551.77 1.47 1.22 2.414 1.19l54.316-1.43-44.712 29.14z" fill="#D9271B"/><path d="M1689.86 33.492c-.38-1.221-1.57-1.991-2.81-2.005l-60.19 1.584 20.13-53.798c.44-1.185.05-2.52-.97-3.278a2.874 2.874 0 00-3.43-.022l-47.82 35.012-17.02-54.968A2.885 2.885 0 001575-46c-1.26 0-2.38.818-2.75 2.017l-17.02 54.968-47.82-35.016a2.883 2.883 0 00-3.44.022 2.857 2.857 0 00-.96 3.278l20.12 53.798-60.18-1.584c-1.26.018-2.43.784-2.82 2.005a2.857 2.857 0 001.17 3.25l49.5 32.26-49.5 32.261a2.855 2.855 0 00-1.17 3.25c.39 1.219 1.55 1.987 2.82 2.005l60.18-1.588-20.12 53.803a2.86 2.86 0 00.96 3.28c1.02.76 2.41.772 3.44.02l47.82-35.016 17.02 54.968A2.876 2.876 0 001575 184c1.26 0 2.37-.818 2.75-2.019l17.02-54.968 47.82 35.016c1.03.75 2.42.738 3.44-.02a2.863 2.863 0 00.96-3.28l-20.12-53.803 60.18 1.588c1.25-.014 2.43-.786 2.82-2.005a2.857 2.857 0 00-1.17-3.25l-49.5-32.26 49.5-32.261a2.847 2.847 0 001.16-3.246zm-57.49 33.116c-.81.533-1.3 1.43-1.3 2.394 0 .964.49 1.861 1.3 2.394l44.71 29.139-54.32-1.433c-.96-.008-1.86.423-2.41 1.199a2.843 2.843 0 00-.36 2.66l18.25 48.79-43.32-31.728a2.874 2.874 0 00-2.6-.411c-.89.29-1.58.99-1.85 1.874L1575 171.43l-15.47-49.944a2.862 2.862 0 00-1.85-1.874 2.89 2.89 0 00-2.6.409l-43.32 31.722 18.25-48.791a2.87 2.87 0 00-.36-2.659c-.55-.776-1.47-1.193-2.42-1.199l-54.31 1.432 44.71-29.138c.81-.533 1.3-1.43 1.3-2.394 0-.964-.49-1.861-1.3-2.394l-44.71-29.13 54.31 1.43c.93.012 1.87-.423 2.42-1.199a2.87 2.87 0 00.36-2.66l-18.25-48.788 43.32 31.724c.75.546 1.72.704 2.6.41.89-.29 1.58-.989 1.85-1.87L1575-33.427l15.47 49.944a2.87 2.87 0 001.85 1.87c.88.296 1.85.139 2.6-.41l43.32-31.72L1620 35.046c-.33.892-.2 1.887.35 2.66a2.881 2.881 0 002.42 1.198l54.31-1.43-44.71 29.134z" fill="#E8A603"/><path d="M-77.283-169.111h42.15l21.065-36.491a4.812 4.812 0 016.577-1.747L29-186.284l36.49-21.065c2.3-1.334 5.256-.55 6.578 1.747l21.065 36.491h42.15a4.83 4.83 0 014.828 4.828v42.15l36.491 21.065a4.811 4.811 0 011.747 6.577L157.284-58l21.065 36.49c1.334 2.3.55 5.256-1.747 6.578L140.111 6.133v42.15a4.83 4.83 0 01-4.828 4.828h-42.15l-21.065 36.49a4.811 4.811 0 01-6.577 1.748L29 70.284-7.49 91.349c-2.3 1.334-5.256.55-6.578-1.747l-21.065-36.49h-42.15a4.83 4.83 0 01-4.828-4.83V6.134l-36.491-21.065a4.812 4.812 0 01-1.747-6.577L-99.284-58l-21.065-36.49c-1.334-2.3-.55-5.256 1.747-6.578l36.49-21.065v-42.15a4.83 4.83 0 014.83-4.828zM1209.72 3997.89h42.15l21.06-36.49a4.82 4.82 0 016.58-1.75l36.49 21.07 36.49-21.07c2.3-1.33 5.26-.55 6.58 1.75l21.06 36.49h42.15c2.67 0 4.83 2.16 4.83 4.83v42.15l36.49 21.06a4.82 4.82 0 011.75 6.58l-21.07 36.49 21.07 36.49c1.33 2.3.55 5.26-1.75 6.58l-36.49 21.06v42.15c0 2.67-2.16 4.83-4.83 4.83h-42.15l-21.06 36.49a4.82 4.82 0 01-6.58 1.75l-36.49-21.07-36.49 21.07c-2.3 1.33-5.26.55-6.58-1.75l-21.06-36.49h-42.15c-2.67 0-4.83-2.16-4.83-4.83v-42.15l-36.49-21.06a4.82 4.82 0 01-1.75-6.58l21.07-36.49-21.07-36.49c-1.33-2.3-.55-5.26 1.75-6.58l36.49-21.06v-42.15c0-2.67 2.16-4.83 4.83-4.83z" fill="#D9271B"/></svg>