<svg width="1600" height="4435" fill="none" xmlns="http://www.w3.org/2000/svg"><path d="M297.999 4148.98s-23.329-18.38-60.272-22.94c16.626-2.77 37.383-8.87 60.142-21.57 0 0-29.191-6.68-64.506 4.84 13.748-9.53 29.738-23.81 44.588-44.88 0 0-29.355 6.36-56.079 31.79 8.189-14.43 16.305-34.04 20.334-59.44 0 0-23.55 18.1-36.336 52.22.936-16.43-.54-37.53-8.165-62 0 0-13.168 26.28-9.512 62.43-6.462-15.19-17.177-33.58-34.933-52.41 0 0-.175 29.25 19.2 60.29-12.583-10.96-30.413-22.99-54.786-32.43 0 0 12.891 26.5 44.243 46.26-16.237-4.58-37.639-7.93-63.917-6.11 0 0 23.331 18.37 60.276 22.94-16.626 2.76-37.386 8.86-60.142 21.56 0 0 29.193 6.68 64.511-4.84-13.749 9.52-29.742 23.81-44.596 44.89 0 0 29.354-6.37 56.082-31.79-8.189 14.42-16.305 34.03-20.336 59.44 0 0 23.55-18.11 36.338-52.23-.934 16.43.54 37.53 8.168 62 0 0 13.165-26.28 9.51-62.44 6.462 15.2 17.174 33.59 34.932 52.41 0 0 .175-29.25-19.194-60.28 12.58 10.96 30.409 22.99 54.777 32.43 0 0-12.888-26.5-44.239-46.27 16.234 4.58 37.637 7.94 63.913 6.12l-.001.01zm850.001-2988s-23.33-18.38-60.27-22.94c16.62-2.77 37.38-8.87 60.14-21.57 0 0-29.19-6.68-64.51 4.84 13.75-9.53 29.74-23.81 44.59-44.88 0 0-29.35 6.36-56.08 31.79 8.19-14.43 16.31-34.04 20.34-59.44 0 0-23.55 18.1-36.34 52.22.94-16.43-.54-37.53-8.16-62 0 0-13.17 26.28-9.52 62.43-6.46-15.19-17.17-33.58-34.93-52.41 0 0-.17 29.25 19.2 60.29-12.58-10.96-30.412-22.99-54.785-32.43 0 0 12.891 26.5 44.245 46.26-16.239-4.58-37.641-7.93-63.919-6.11 0 0 23.331 18.37 60.279 22.94-16.629 2.76-37.389 8.86-60.145 21.56 0 0 29.193 6.68 64.515-4.84-13.753 9.52-29.746 23.81-44.6 44.89 0 0 29.354-6.37 56.08-31.79-8.19 14.42-16.3 34.03-20.33 59.44 0 0 23.55-18.11 36.33-52.23-.93 16.43.54 37.53 8.17 62 0 0 13.17-26.28 9.51-62.44 6.46 15.2 17.18 33.59 34.93 52.41 0 0 .18-29.25-19.19-60.28 12.58 10.96 30.41 22.99 54.78 32.43 0 0-12.89-26.5-44.24-46.27 16.23 4.58 37.64 7.94 63.91 6.12v.01z" fill="#E8A603"/><path d="M400.805 3076.05c-.553-1.75-2.262-2.85-4.043-2.87l-86.35 2.27 28.873-77.19a4.08 4.08 0 00-1.381-4.7 4.122 4.122 0 00-4.928-.03l-68.612 50.23-24.422-78.87a4.128 4.128 0 00-3.945-2.89 4.13 4.13 0 00-3.945 2.89l-24.422 78.87-68.611-50.24a4.124 4.124 0 00-4.929.03 4.094 4.094 0 00-1.381 4.71l28.873 77.18-86.35-2.27c-1.81.03-3.493 1.13-4.043 2.88a4.1 4.1 0 001.675 4.66L143.89 3127l-71.026 46.28a4.105 4.105 0 00-1.675 4.67c.553 1.75 2.228 2.85 4.043 2.87l86.35-2.27-28.873 77.19a4.094 4.094 0 001.381 4.71 4.139 4.139 0 004.929.03l68.614-50.24 24.422 78.86A4.124 4.124 0 00236 3292a4.127 4.127 0 003.945-2.9l24.422-78.86 68.614 50.24a4.154 4.154 0 004.929-.03 4.098 4.098 0 001.381-4.71l-28.873-77.19 86.35 2.27c1.79-.02 3.493-1.12 4.043-2.87a4.11 4.11 0 00-1.675-4.67L328.11 3127l71.026-46.29a4.097 4.097 0 001.669-4.66zm-82.491 47.52a4.104 4.104 0 00-1.864 3.43c0 1.39.702 2.67 1.864 3.44l64.147 41.81-77.931-2.06c-1.378-.01-2.67.61-3.464 1.72a4.099 4.099 0 00-.512 3.82l26.183 70-62.155-45.52a4.128 4.128 0 00-3.738-.59 4.108 4.108 0 00-2.653 2.69l-22.192 71.65-22.193-71.65a4.088 4.088 0 00-2.653-2.69 4.116 4.116 0 00-1.292-.21c-.869 0-1.729.27-2.446.79l-62.155 45.52 26.184-70.01c.474-1.28.284-2.7-.513-3.81-.791-1.11-2.114-1.71-3.464-1.72l-77.93 2.05 64.146-41.8a4.134 4.134 0 001.864-3.44c0-1.38-.702-2.67-1.864-3.43l-64.147-41.8 77.931 2.05c1.332.02 2.67-.6 3.464-1.72.797-1.1.987-2.53.513-3.81l-26.184-70 62.158 45.51a4.124 4.124 0 003.738.59 4.136 4.136 0 002.653-2.68l22.192-71.66 22.193 71.66a4.094 4.094 0 002.653 2.68c1.266.43 2.664.2 3.738-.59l62.158-45.51-26.184 70a4.102 4.102 0 00.513 3.82 4.133 4.133 0 003.464 1.72l77.931-2.05-64.153 41.8z" fill="#D9271B"/><path d="M1660.86 221.492c-.38-1.221-1.57-1.991-2.81-2.005l-60.19 1.584 20.13-53.798c.44-1.185.05-2.52-.96-3.278a2.89 2.89 0 00-3.44-.022l-47.82 35.012-17.02-54.968A2.876 2.876 0 001546 142c-1.26 0-2.38.818-2.75 2.017l-17.02 54.968-47.82-35.016a2.883 2.883 0 00-3.44.022 2.857 2.857 0 00-.96 3.278l20.12 53.798-60.18-1.584c-1.26.018-2.43.784-2.82 2.005a2.871 2.871 0 001.17 3.25l49.5 32.26-49.5 32.261a2.87 2.87 0 00-1.17 3.25c.39 1.219 1.56 1.987 2.82 2.005l60.18-1.588-20.12 53.803a2.86 2.86 0 00.96 3.28c1.02.76 2.42.772 3.44.02l47.82-35.016 17.02 54.968A2.876 2.876 0 001546 372c1.26 0 2.38-.818 2.75-2.019l17.02-54.968 47.82 35.016c1.03.75 2.42.738 3.44-.02a2.848 2.848 0 00.96-3.28l-20.12-53.803 60.18 1.588c1.25-.014 2.44-.786 2.82-2.005a2.857 2.857 0 00-1.17-3.25l-49.5-32.261 49.5-32.26a2.847 2.847 0 001.16-3.246zm-57.49 33.116a2.87 2.87 0 00-1.3 2.394c0 .964.49 1.861 1.3 2.394l44.71 29.139-54.32-1.433c-.96-.008-1.86.423-2.41 1.199a2.843 2.843 0 00-.36 2.66l18.25 48.79-43.32-31.728a2.874 2.874 0 00-2.6-.411c-.89.29-1.58.99-1.85 1.874L1546 359.43l-15.47-49.944a2.84 2.84 0 00-1.85-1.874 2.89 2.89 0 00-2.6.409l-43.32 31.722 18.25-48.791c.33-.891.2-1.887-.36-2.659-.55-.776-1.47-1.193-2.41-1.199l-54.32 1.432 44.71-29.138c.81-.533 1.3-1.43 1.3-2.394 0-.964-.49-1.861-1.3-2.394l-44.71-29.13 54.32 1.43c.92.012 1.86-.423 2.41-1.199a2.84 2.84 0 00.36-2.659l-18.25-48.789 43.32 31.724c.75.547 1.72.704 2.61.411.88-.291 1.57-.99 1.84-1.871l15.47-49.944 15.47 49.944a2.87 2.87 0 001.85 1.871 2.86 2.86 0 002.6-.411l43.33-31.72-18.25 48.789c-.33.892-.2 1.887.35 2.659a2.894 2.894 0 002.42 1.199l54.31-1.43-44.71 29.134z" fill="#E8A603"/><path d="M1678.01 1660.65l-38.88-22.98 18.58-42.57c.88-2.02.66-4.37-.59-6.17-1.23-1.79-3.33-2.74-5.41-2.49l-44.35 5.4-8.79-45.9c-.42-2.18-1.92-3.95-3.94-4.64-2.02-.68-4.22-.18-5.77 1.33l-32.86 31.72-32.86-31.73c-1.55-1.5-3.76-2-5.77-1.32-2.02.69-3.52 2.46-3.94 4.63l-8.79 45.91-44.35-5.4c-2.12-.24-4.17.7-5.41 2.49a6.405 6.405 0 00-.59 6.17l18.58 42.56-38.88 22.99c-1.85 1.09-2.99 3.13-2.99 5.35 0 2.22 1.14 4.26 2.99 5.35l38.88 22.98-18.58 42.57c-.89 2.01-.66 4.37.58 6.17 1.25 1.79 3.33 2.75 5.42 2.49l44.35-5.4 8.79 45.9c.41 2.18 1.92 3.95 3.93 4.64 2.01.68 4.22.18 5.78-1.32l32.86-31.73 32.85 31.73a5.71 5.71 0 003.97 1.62c.61 0 1.22-.1 1.81-.3 2.02-.69 3.52-2.46 3.94-4.64l8.79-45.9 44.35 5.4c.22.03.45.04.67.04h.08c3.24 0 5.86-2.75 5.86-6.14 0-1.26-.36-2.43-.98-3.4l-18.21-41.73 38.89-22.98c1.84-1.09 2.98-3.13 2.98-5.35 0-2.22-1.14-4.26-2.99-5.36v.01z" fill="#D9271B"/><path fill-rule="evenodd" clip-rule="evenodd" d="M146.589 1713.26a9.099 9.099 0 00-11.244 4.13l-46.228 84.76h.003l-30.8 56.53-63.129-12.6-94.668-18.91a9.094 9.094 0 00-6.135 16.9l84.76 46.22h.004c0 .01.002.01.002.01l56.527 30.8-12.599 63.12v.01l-18.858 94.68-.001.01a9.083 9.083 0 005.817 10.31 9.086 9.086 0 0011.08-4.19l46.177-84.77.001-.01 30.8-56.52 63.128 12.6h.003l94.687 18.86h.003a9.092 9.092 0 006.123-16.9l-84.779-46.18-56.527-30.8 12.599-63.13h.001l18.908-94.67.002.01a9.095 9.095 0 00-5.652-10.26l-.005-.01zm-23.876 65.27l-7.213 36.1h-.001l-13.906 69.69a9.091 9.091 0 004.565 9.76l62.401 34.01 32.334 17.61-36.116-7.2h.001l-69.69-13.91.002.01a9.09 9.09 0 00-9.76 4.56l-34.003 62.4-17.61 32.34 7.193-36.12 13.906-69.69-.001.01a9.101 9.101 0 00-4.568-9.77l-62.401-34h-.001l-32.33-17.63 36.105 7.21 69.69 13.91h.004c3.9.78 7.857-1.07 9.761-4.57l34.003-62.4 17.632-32.33.003.01z" fill="#E8A603"/><path d="M-106.283 38.889h42.15l21.065-36.49A4.811 4.811 0 01-36.491.65L0 21.716 36.49.651c2.3-1.334 5.256-.55 6.578 1.747l21.065 36.49h42.15a4.83 4.83 0 014.828 4.83v42.149l36.491 21.065a4.811 4.811 0 011.747 6.577L128.284 150l21.065 36.491c1.334 2.299.55 5.255-1.747 6.577l-36.491 21.065v42.15a4.83 4.83 0 01-4.828 4.828h-42.15l-21.065 36.491a4.812 4.812 0 01-6.577 1.747L0 278.284l-36.49 21.065c-2.3 1.334-5.256.55-6.578-1.747l-21.065-36.491h-42.15a4.83 4.83 0 01-4.828-4.828v-42.15l-36.491-21.065a4.811 4.811 0 01-1.747-6.577L-128.284 150l-21.065-36.491c-1.334-2.299-.55-5.255 1.747-6.577l36.491-21.065v-42.15a4.83 4.83 0 014.828-4.828zM1149.72 4317.89h42.15l21.06-36.49a4.82 4.82 0 016.58-1.75l36.49 21.07 36.49-21.07c2.3-1.33 5.26-.55 6.58 1.75l21.06 36.49h42.15c2.67 0 4.83 2.16 4.83 4.83v42.15l36.49 21.06a4.82 4.82 0 011.75 6.58l-21.06 36.49 21.06 36.49c1.33 2.3.55 5.26-1.75 6.58l-36.49 21.06v42.15c0 2.67-2.16 4.83-4.83 4.83h-42.15l-21.06 36.49c-1.33 2.3-4.28 3.08-6.58 1.75l-36.49-21.07-36.49 21.07c-2.3 1.33-5.25.55-6.58-1.75l-21.06-36.49h-42.15c-2.67 0-4.83-2.16-4.83-4.83v-42.15l-36.49-21.06a4.82 4.82 0 01-1.75-6.58l21.07-36.49-21.07-36.49c-1.33-2.3-.55-5.26 1.75-6.58l36.49-21.06v-42.15c0-2.67 2.16-4.83 4.83-4.83z" fill="#D9271B"/><path d="M1299.72 2867.89h42.15l21.06-36.49a4.82 4.82 0 016.58-1.75l36.49 21.07 36.49-21.07c2.3-1.33 5.26-.55 6.58 1.75l21.06 36.49h42.15c2.67 0 4.83 2.16 4.83 4.83v42.15l36.49 21.06a4.82 4.82 0 011.75 6.58l-21.06 36.49 21.06 36.49c1.33 2.3.55 5.26-1.75 6.58l-36.49 21.06v42.15c0 2.67-2.16 4.83-4.83 4.83h-42.15l-21.06 36.49c-1.33 2.3-4.28 3.08-6.58 1.75l-36.49-21.07-36.49 21.07c-2.3 1.33-5.25.55-6.58-1.75l-21.06-36.49h-42.15c-2.67 0-4.83-2.16-4.83-4.83v-42.15l-36.49-21.06a4.82 4.82 0 01-1.75-6.58l21.07-36.49-21.07-36.49c-1.33-2.3-.55-5.26 1.75-6.58l36.49-21.06v-42.15c0-2.67 2.16-4.83 4.83-4.83z" fill="#E8A603"/></svg>