<svg width="41" height="40" fill="none" xmlns="http://www.w3.org/2000/svg"><g clip-path="url(#clip0_341_3637)" fill-rule="evenodd" clip-rule="evenodd" fill="#111"><path d="M20.166 3.146C10.631 3.146 2.901 10.692 2.901 20c0 9.309 7.73 16.854 17.265 16.854 9.536 0 17.266-7.545 17.266-16.854 0-9.308-7.73-16.854-17.266-16.854zM.326 20C.326 9.303 9.209.632 20.166.632 31.124.632 40.008 9.303 40.008 20s-8.884 19.37-19.841 19.37C9.208 39.369.325 30.697.325 20z"/><path d="M20.166 5.794c.712 0 1.288.563 1.288 1.257v12.907c0 .694-.576 1.257-1.288 1.257-.711 0-1.288-.563-1.288-1.257V7.05c0-.694.577-1.257 1.288-1.257z"/><path d="M19.051 19.33a1.305 1.305 0 011.76-.46l9.057 5.104a1.24 1.24 0 01.471 1.717 1.305 1.305 0 01-1.759.46l-9.057-5.104a1.241 1.241 0 01-.472-1.717z"/></g><defs><clipPath id="clip0_341_3637"><path fill="#fff" transform="translate(.167)" d="M0 0h40v40H0z"/></clipPath></defs></svg>