<svg width="15" height="14" fill="none" xmlns="http://www.w3.org/2000/svg"><path d="M7.153 0a7.25 7.25 0 012.73.533 7.142 7.142 0 012.313 1.517A6.934 6.934 0 0114.286 7a6.844 6.844 0 01-1.612 4.43l1.426 1.4a.697.697 0 01.15.763.705.705 0 01-.276.305.725.725 0 01-.402.101h-6.42a7.202 7.202 0 01-5.043-2.05A6.934 6.934 0 01.02 7c0-1.856.752-3.636 2.09-4.949A7.202 7.202 0 017.153 0zm0 12.6h4.7l-.663-.652a.694.694 0 010-.987 5.52 5.52 0 00.714-7.07 5.699 5.699 0 00-3.087-2.249 5.808 5.808 0 00-3.84.183 5.67 5.67 0 00-2.85 2.532 5.508 5.508 0 00-.567 3.731 5.582 5.582 0 001.974 3.238 5.773 5.773 0 003.619 1.273z" fill="#111"/></svg>