<svg width="55" height="40" fill="none" xmlns="http://www.w3.org/2000/svg"><path d="M32.219 1.35a.8.8 0 00-.247-.575.857.857 0 00-.595-.238H1.065C.6.537.223.901.223 1.351a6.853 6.853 0 001.608 4.285 65.493 65.493 0 000 28.847 6.853 6.853 0 00-1.608 4.285.8.8 0 00.247.575.857.857 0 00.595.239h26c.466 0 .843-.364.843-.814 0-.449-.377-.813-.842-.813H1.98a5.544 5.544 0 011.153-2.44h22.73a.828.828 0 00.841-.814c0-.45-.377-.813-.842-.813H3.423a66.077 66.077 0 01-1.516-13.829c.017-4.647.525-9.28 1.516-13.828h25.596a66.078 66.078 0 011.516 13.828c0 .643-.014 1.27-.035 1.888-.014.45.35.825.815.839h.027a.83.83 0 00.842-.788c.02-.637.035-1.279.035-1.939A66.328 66.328 0 0030.61 5.635a6.853 6.853 0 001.608-4.285zM3.13 4.605a5.425 5.425 0 01-1.152-2.44H30.46a5.53 5.53 0 01-1.153 2.44H3.131z" fill="#111"/><path d="M53.942 32.587a.852.852 0 00-.673-.326h-1.902a5.548 5.548 0 001.06-3.254c0-3.761-2.575-8.134-5.894-8.134-3.32 0-5.894 4.373-5.894 8.134 0 1.164.37 2.3 1.059 3.254h-7.78a4.011 4.011 0 01-1.7-3.254c0-2.868 1.983-6.507 4.21-6.507 1.003 0 2.066.786 2.916 2.156.112.19.3.329.518.384.22.056.453.024.647-.088a.815.815 0 00.386-.51.79.79 0 00-.106-.622c-1.18-1.9-2.729-2.947-4.36-2.947-3.32 0-5.894 4.373-5.894 8.134 0 1.164.37 2.3 1.059 3.254h-3.585a.851.851 0 00-.672.324.792.792 0 00-.138.713l1.221 4.13c.203.61.596 1.144 1.125 1.53.53.385 1.169.603 1.832.624H49.9a3.286 3.286 0 001.831-.624c.53-.386.922-.92 1.125-1.53l1.221-4.13a.792.792 0 00-.136-.712zm-11.62-3.58c0-2.868 1.983-6.507 4.21-6.507 2.229 0 4.21 3.64 4.21 6.507a4.012 4.012 0 01-1.7 3.254h-5.02a4.011 4.011 0 01-1.7-3.254zm8.916 7.972a1.49 1.49 0 01-.52.68 1.573 1.573 0 01-.817.296H31.377a1.573 1.573 0 01-.819-.297 1.49 1.49 0 01-.518-.679l-.915-3.091h23.028l-.915 3.091zM22.957 20.06H9.485a2.57 2.57 0 01-1.786-.715 2.4 2.4 0 01-.74-1.725v-4.88a2.4 2.4 0 01.74-1.726 2.573 2.573 0 011.786-.715h13.472c.67 0 1.313.257 1.787.715a2.4 2.4 0 01.74 1.725v4.88a2.4 2.4 0 01-.74 1.726 2.573 2.573 0 01-1.787.715zM9.485 11.926c-.465 0-.842.364-.842.813v4.88a.8.8 0 00.247.576.857.857 0 00.595.238h13.472a.857.857 0 00.596-.238.8.8 0 00.246-.575v-4.881a.8.8 0 00-.246-.575.857.857 0 00-.596-.238H9.485zm4.21 12.201H7.801c-.465 0-.842-.364-.842-.814 0-.449.377-.813.842-.813h5.894c.465 0 .842.364.842.813 0 .45-.377.814-.842.814zm6.736 3.253H7.801c-.465 0-.842-.364-.842-.814 0-.449.377-.813.842-.813h12.63c.465 0 .842.364.842.813 0 .45-.377.814-.842.814zm-1.684 3.254H7.801c-.465 0-.842-.364-.842-.814 0-.449.377-.813.842-.813h10.946c.465 0 .842.364.842.813 0 .45-.377.814-.842.814z" fill="#111"/></svg>