<svg width="15" height="14" fill="none" xmlns="http://www.w3.org/2000/svg"><path fill-rule="evenodd" clip-rule="evenodd" d="M4.432 0a4.3 4.3 0 012.043.517c.376.202.722.46 1.025.762A4.337 4.337 0 0110.568 0C13.016 0 15 2.058 15 4.596c0 2.216-1.252 4.242-2.711 5.77-1.467 1.536-3.26 2.695-4.574 3.148a.659.659 0 01-.43 0c-1.314-.453-3.107-1.612-4.573-3.147C1.252 8.837 0 6.812 0 4.596 0 2.058 1.984 0 4.431 0m1.416 1.772a2.976 2.976 0 00-1.415-.358c-1.695 0-3.068 1.425-3.068 3.182 0 1.673.964 3.359 2.316 4.776 1.26 1.318 2.754 2.296 3.82 2.72 1.066-.424 2.56-1.402 3.82-2.72 1.352-1.417 2.316-3.103 2.316-4.776 0-1.757-1.373-3.182-3.068-3.182-1.037 0-1.954.533-2.51 1.353a.675.675 0 01-.558.3.675.675 0 01-.558-.301 3.1 3.1 0 00-1.095-.994z" fill="#111"/></svg>