<svg width="227" height="57" fill="none" xmlns="http://www.w3.org/2000/svg"><g filter="url(#filter0_d_110_6900)"><path d="M0 14.98l17.848-.784-.593 38.664h13.923l-1.555-39.235 17.7-.784.073-9.916H.37L0 14.98zm72.146 37.88h11.182l9.257-17.763 9.258 17.763h11.182l20.292-49.293L122.134 0l-16.366 35.454-6.814-12.484 9.109-17.477-9.701-4.78-5.776 10.558L86.808.713l-9.701 4.78 9.109 17.477-6.814 12.484L63.037 0 51.854 3.567 72.146 52.86zm70.81-49.935V13.41h7.331l.148 27.892H143.4V52.86h25.328l-1.482-11.556h-5.776l.148-27.893h5.628V2.925h-24.29zm51.088 24.753l-15.7 19.475L187.972 55l13.478-18.619L211.818 55l11.849-7.847-13.997-20.045L225 7.276 215.965.785l-13.478 17.477L191.156.785l-10.59 6.92 13.478 19.973z" fill="#D9271B"/><path d="M30.658 52.36H17.763l.585-38.157.008-.53-.53.023-17.31.761.34-11.032h46.037l-.067 8.937-17.225.764-.498.022.02.497 1.535 38.715zM52.523 3.878L62.768.611l16.181 35.052.417.903.476-.873 6.814-12.483.127-.234-.123-.237-8.873-17.024L86.6 1.374l5.547 10.137.438.802.44-.802L98.57 1.374l8.813 4.341-8.873 17.024-.123.237.127.234 6.814 12.483.476.873.417-.903L122.403.611l10.245 3.267L112.69 52.36h-10.544l-9.117-17.494-.444-.85-.443.85-9.117 17.494H72.481L52.523 3.878zM168.16 52.36H143.9V41.804h7.038l-.003-.503-.148-27.893-.002-.497h-7.329V3.425h23.29v9.486h-5.625l-.003.498-.148 27.892-.003.502h5.839l1.353 10.557zm26.274-24.368l.232-.287-.206-.306-13.195-19.554 9.745-6.367 11.058 17.056.384.593.432-.56 13.183-17.094 8.222 5.907-15.013 19.422-.225.29.21.302 13.704 19.625-10.972 7.266-10.105-18.147-.382-.685-.46.635-13.168 18.19-8.831-7.198 15.387-19.088z" stroke="#111"/></g><defs><filter id="filter0_d_110_6900" x="0" y="0" width="227" height="57" filterUnits="userSpaceOnUse" color-interpolation-filters="sRGB"><feFlood flood-opacity="0" result="BackgroundImageFix"/><feColorMatrix in="SourceAlpha" values="0 0 0 0 0 0 0 0 0 0 0 0 0 0 0 0 0 0 127 0" result="hardAlpha"/><feOffset dx="2" dy="2"/><feComposite in2="hardAlpha" operator="out"/><feColorMatrix values="0 0 0 0 0 0 0 0 0 0 0 0 0 0 0 0 0 0 0.25 0"/><feBlend in2="BackgroundImageFix" result="effect1_dropShadow_110_6900"/><feBlend in="SourceGraphic" in2="effect1_dropShadow_110_6900" result="shape"/></filter></defs></svg>