<svg width="66" height="40" fill="none" xmlns="http://www.w3.org/2000/svg"><g clip-path="url(#clip0_341_3649)"><path d="M38.126.66c.3-.004.588.114.802.329.213.214.333.507.333.812 0 .305-.12.598-.333.812a1.108 1.108 0 01-.802.329h-3.84v3.327c13.5.54 24.501 10.803 26.449 24.141h.259c2.543 0 4.626 2.122 4.626 4.715 0 2.592-2.083 4.715-4.626 4.715H5.338c-2.544 0-4.626-2.123-4.626-4.715 0-2.593 2.082-4.715 4.626-4.715h.259C7.545 17.072 18.547 6.809 32.046 6.27V2.941h-3.84c-.3.004-.588-.115-.802-.329a1.152 1.152 0 010-1.624c.213-.215.502-.333.802-.329h9.92zm-4.96 7.868c-12.8 0-23.325 9.434-25.303 21.881h50.608C56.493 17.962 45.97 8.528 33.168 8.528h-.001zm6.647 5.296c.176-.008.351.026.512.1a27.79 27.79 0 018.239 5.603 1.155 1.155 0 01.04 1.624 1.11 1.11 0 01-.794.35c-.3.003-.588-.117-.8-.332a25.543 25.543 0 00-7.576-5.153 1.145 1.145 0 01-.671-1.25 1.127 1.127 0 011.05-.942zM60.994 32.69H5.338c-1.342 0-2.387 1.066-2.387 2.434 0 1.367 1.045 2.433 2.387 2.433h55.656c1.342 0 2.388-1.065 2.388-2.433 0-1.367-1.045-2.433-2.388-2.433z" fill="#111"/></g><defs><clipPath id="clip0_341_3649"><path fill="#fff" transform="matrix(-1 0 0 1 65.666 0)" d="M0 0h65v40H0z"/></clipPath></defs></svg>