<svg width="1003" height="265" fill="none" xmlns="http://www.w3.org/2000/svg"><path d="M3.303 189h-1.2V45.6h28.2v1.2l17.2 16.8v97.2h4.6v1.2l17.2 16.8v27h-48.8L3.302 189zm23-24.2V49.6h-20.2V185h42v-20.2h-21.8zm-2 2V51.6h-16.2V183h38v-16.2h-21.8zm93.708-67h2.8v1.2l17.2 16.8V145h-20v15.8h7v1.2l17.2 16.8v27h-51.2L73.81 189h-1.2V45.6h52.4v1.2l17.2 16.8v27.2h-24.2v9zm-21.2 65v-40.6h20v-20.4h-20V70h24.2V49.6h-44.4V185h44.4v-20.2h-24.2zm-2 2v-44.6h20v-16.4h-20V68h24.2V51.6h-40.4V183h40.4v-16.2h-24.2zM199.847 45.6v1.2l17.2 16.8v27h-24.8v8.2h3.4v1.2l17.2 16.8V144h-20.6v61.8h-27.2l-17.2-16.8h-1.2V45.6h53.2zm-49.2 4V185h20.4v-61.8h20.6v-20.4h-20.6v-33h24.8V49.6h-45.2zm2 2V183h16.4v-61.8h20.6v-16.4h-20.6v-37h24.8V51.6h-41.2zm127.595-6v1.2l17.2 16.8v27h-15.4v115.2h-27.2l-17.2-16.8h-1.2V87.8l-14.2-14h-1.2V45.6h59.2zm-55.2 4v20.2h15.4V185h20.4V69.8h15.4V49.6h-51.2zm2 2v16.2h15.4V183h16.4V67.8h15.4V51.6h-47.2zm118.282 134.6c-3.067-1.733-5.6-4.2-7.6-7.4-1.867-3.333-2.8-6.933-2.8-10.8V66.6c0-2.933.533-5.667 1.6-8.2 1.066-2.533 2.533-4.733 4.4-6.6 2-1.867 4.266-3.333 6.8-4.4 2.533-1.2 5.266-1.8 8.2-1.8h20.2c3.866 0 7.333.933 10.4 2.8 3.2 1.867 5.733 4.333 7.6 7.4l14 13.6c1.866 1.867 3.333 4.067 4.4 6.6 1.2 2.4 1.8 5.067 1.8 8v101.4c0 2.8-.534 5.4-1.6 7.8-1.067 2.533-2.534 4.733-4.4 6.6-1.867 1.867-4.067 3.333-6.6 4.4-2.4 1.067-5 1.6-7.8 1.6h-20.2c-5.6 0-10.334-1.933-14.2-5.8l-14.2-13.8zm27.4-27.6c0 1.733-.6 3.2-1.8 4.4-1.067 1.067-2.467 1.6-4.2 1.6h-1.4c-1.734 0-3.2-.533-4.4-1.6-1.067-1.2-1.6-2.667-1.6-4.4V76c0-1.733.533-3.2 1.6-4.4 1.2-1.2 2.666-1.8 4.4-1.8h1.4c1.733 0 3.133.6 4.2 1.8 1.2 1.2 1.8 2.667 1.8 4.4v82.6zm20.4-92c0-4.667-1.667-8.667-5-12-3.334-3.333-7.334-5-12-5h-20.2c-4.667 0-8.667 1.667-12 5-3.334 3.333-5 7.333-5 12V168c0 4.667 1.666 8.667 5 12 3.333 3.333 7.333 5 12 5h20.2c4.666 0 8.666-1.667 12-5 3.333-3.333 5-7.333 5-12V66.6zm-18.4 92c0 2.267-.8 4.2-2.4 5.8-1.467 1.467-3.334 2.2-5.6 2.2h-1.4c-2.267 0-4.2-.733-5.8-2.2-1.467-1.6-2.2-3.533-2.2-5.8V76c0-2.267.733-4.2 2.2-5.8 1.6-1.6 3.533-2.4 5.8-2.4h1.4c2.266 0 4.133.8 5.6 2.4 1.6 1.6 2.4 3.533 2.4 5.8v82.6zm16.4-92c0-4.267-1.467-7.8-4.4-10.6-2.8-2.933-6.334-4.4-10.6-4.4h-20.2c-4.267 0-7.867 1.467-10.8 4.4-2.8 2.8-4.2 6.333-4.2 10.6V168c0 4.267 1.4 7.867 4.2 10.8 2.933 2.8 6.533 4.2 10.8 4.2h20.2c4.266 0 7.8-1.4 10.6-4.2 2.933-2.933 4.4-6.533 4.4-10.8V66.6zM420.709 189h-1.2V45.6h41.2c3.867 0 7.333.933 10.4 2.8 3.2 1.867 5.733 4.333 7.6 7.4l14 13.6c1.867 1.867 3.333 4.067 4.4 6.6 1.2 2.4 1.8 5.067 1.8 8v54c0 3.867-.867 7.4-2.6 10.6-1.733 3.067-4.267 5.467-7.6 7.2 1.733 8 3.6 16.467 5.6 25.4 2 8.8 3.867 17 5.6 24.6h-28.2l-6.8-6.6v6.6h-27l-17.2-16.8zm57-122.4c0-4.667-1.667-8.667-5-12s-7.333-5-12-5h-37.2V185h20.2v-47.4h2.6l10.4 47.4h21l-10.8-48.6c3.2-1.2 5.8-3.267 7.8-6.2 2-2.933 3-6.133 3-9.6v-54zm-20.4 44.6c0 1.6-.6 3-1.8 4.2-1.2 1.2-2.6 1.8-4.2 1.8h-7.6V69.8h7.6c1.733 0 3.133.667 4.2 2 1.2 1.2 1.8 2.6 1.8 4.2v35.2zm18.4-44.6c0-4.267-1.467-7.8-4.4-10.6-2.8-2.933-6.333-4.4-10.6-4.4h-35.2V183h16.2v-47.4h6.4l10.4 47.4h16.6l-10.4-48c3.333-1.2 6-3.133 8-5.8s3-5.533 3-8.6v-54zm-16.4 44.6c0 2.133-.8 4-2.4 5.6-1.6 1.6-3.467 2.4-5.6 2.4h-9.6V67.8h9.6c2.267 0 4.133.867 5.6 2.6 1.6 1.6 2.4 3.467 2.4 5.6v35.2zm79.564 77.8h-1.2V45.6h41.2c3.867 0 7.333.933 10.4 2.8 3.2 1.867 5.733 4.333 7.6 7.4l14 13.6c1.867 1.867 3.333 4.067 4.4 6.6 1.2 2.4 1.8 5.067 1.8 8v54c0 3.867-.867 7.4-2.6 10.6-1.733 3.067-4.267 5.467-7.6 7.2 1.733 8 3.6 16.467 5.6 25.4 2 8.8 3.867 17 5.6 24.6h-28.2l-6.8-6.6v6.6h-27l-17.2-16.8zm57-122.4c0-4.667-1.667-8.667-5-12s-7.333-5-12-5h-37.2V185h20.2v-47.4h2.6l10.4 47.4h21l-10.8-48.6c3.2-1.2 5.8-3.267 7.8-6.2 2-2.933 3-6.133 3-9.6v-54zm-20.4 44.6c0 1.6-.6 3-1.8 4.2-1.2 1.2-2.6 1.8-4.2 1.8h-7.6V69.8h7.6c1.733 0 3.133.667 4.2 2 1.2 1.2 1.8 2.6 1.8 4.2v35.2zm18.4-44.6c0-4.267-1.467-7.8-4.4-10.6-2.8-2.933-6.333-4.4-10.6-4.4h-35.2V183h16.2v-47.4h6.4l10.4 47.4h16.6l-10.4-48c3.333-1.2 6-3.133 8-5.8s3-5.533 3-8.6v-54zm-16.4 44.6c0 2.133-.8 4-2.4 5.6-1.6 1.6-3.467 2.4-5.6 2.4h-9.6V67.8h9.6c2.267 0 4.133.867 5.6 2.6 1.6 1.6 2.4 3.467 2.4 5.6v35.2zm72.766-65.6v1.2l17.2 16.8v142.2h-27.2l-17.2-16.8h-1.2V45.6h28.4zm-24.4 4V185h20.4V49.6h-20.4zm2 2V183h16.4V51.6h-16.4zm54.195 134.6a21.83 21.83 0 01-7.4-7.4c-1.867-3.2-2.8-6.733-2.8-10.6V66.6c0-2.933.533-5.667 1.6-8.2 1.067-2.533 2.533-4.733 4.4-6.6a22.93 22.93 0 016.8-4.4c2.533-1.2 5.267-1.8 8.2-1.8h20.2c3.867 0 7.333.933 10.4 2.8 3.2 1.867 5.733 4.333 7.6 7.4l.2.2 13.8 13.4c1.867 1.867 3.333 4.067 4.4 6.6 1.2 2.4 1.8 5.067 1.8 8v27h-15l15 14.6v80.2h-40.6c-5.733 0-10.533-1.933-14.4-5.8l-14.2-13.8zm48-74.6h-28.4V132h8v32.8h-7.4c-1.733 0-3.2-.6-4.4-1.8-1.067-1.2-1.6-2.667-1.6-4.4V76c0-1.6.6-3 1.8-4.2 1.2-1.2 2.6-1.8 4.2-1.8 2.667 0 4.533.733 5.6 2.2 1.067 1.333 1.733 3.067 2 5.2.267 2 .267 4.2 0 6.6-.133 2.267-.2 4.333-.2 6.2h20.4V66.6c0-4.667-1.667-8.667-5-12s-7.333-5-12-5h-20.2c-4.667 0-8.667 1.667-12 5s-5 7.333-5 12v101.6c0 4.667 1.667 8.667 5 12 3.333 3.2 7.333 4.8 12 4.8h37.2v-73.4zm-2 2h-24.4V130h8v36.8h-9.4c-2.267 0-4.2-.8-5.8-2.4-1.467-1.6-2.2-3.533-2.2-5.8V76c0-2.133.8-4 2.4-5.6 1.6-1.6 3.467-2.4 5.6-2.4 2.4 0 4.267.6 5.6 1.8 1.333 1.067 2.267 2.533 2.8 4.4.667 1.733 1.067 3.667 1.2 5.8.133 2 .133 4 0 6v1.2c0 .267-.067.467-.2.6v.4h16.4V66.6c0-4.267-1.467-7.8-4.4-10.6-2.8-2.933-6.333-4.4-10.6-4.4h-20.2c-4.267 0-7.867 1.467-10.8 4.4-2.8 2.8-4.2 6.333-4.2 10.6v101.6c0 4.267 1.4 7.8 4.2 10.6 2.933 2.8 6.533 4.2 10.8 4.2h35.2v-69.4zm91.394-66.8l17.2 16.8v142.2h-27.2l-8.2-8v8h-27.2l-17.2-16.8h-1.2V45.6h28.4v1.2l7 6.8v-8h28.4v1.2zm-4 2.8h-20.4v60.8h-15V49.6h-20.4V185h20.4v-54.4h15V185h20.4V49.6zm-2 2h-16.4v60.8h-19V51.6h-16.4V183h16.4v-54.4h19V183h16.4V51.6zm85.956-6v1.2l17.2 16.8v27h-15.4v115.2h-27.2l-17.2-16.8h-1.2V87.8l-14.2-14h-1.2V45.6h59.2zm-55.2 4v20.2h15.4V185h20.4V69.8h15.4V49.6h-51.2zm2 2v16.2h15.4V183h16.4V67.8h15.4V51.6h-47.2zm93.483 109l-3.6-3.6h-1.2v-13.4c0-5.467.866-10.467 2.6-15 1.866-4.667 3.933-9.4 6.2-14.2l1.6-3.4h-6.2l-17.2-16.8h-1.2V66.4c0-6 2-10.933 6-14.8 4.133-4 9.133-6 15-6h20.2c3.866 0 7.4.933 10.6 2.8 3.2 1.867 5.733 4.333 7.6 7.4l14 13.6c1.866 1.867 3.333 4.067 4.4 6.6 1.066 2.4 1.603 5 1.603 7.8V109c0 5.467-1.07 10.733-3.203 15.8-2 5.067-4.267 10.133-6.8 15.2-2.4 4.933-4.6 10-6.6 15.2-2 5.2-3 11.4-3 18.6h-5l5 4.8v27.2h-27.2l-17.2-16.8h-1.2v-28.4h4.8zm-.8 4V185h20.4v-20.4h-20.4zm40-98.2c0-4.667-1.667-8.6-5-11.8-3.334-3.333-7.334-5-12-5h-20.2c-4.667 0-8.667 1.667-12 5-3.334 3.2-5 7.133-5 11.8v23.8h20.2c0-1.333-.134-3.133-.4-5.4a57.513 57.513 0 010-6.8c.266-2.267.866-4.2 1.8-5.8.933-1.6 2.533-2.4 4.8-2.4 2 0 3.733.467 5.2 1.4 1.466.933 2.2 2.533 2.2 4.8 0 7.867-1.067 14.8-3.2 20.8-2 5.867-4.2 11.4-6.6 16.6-2.4 5.067-4.667 10-6.8 14.8-2 4.8-3 9.933-3 15.4v9.4h20.4c0-5.6 1-10.933 3-16a262.07 262.07 0 016.8-15.2c2.4-5.067 4.6-10.067 6.6-15 2.133-4.933 3.2-10 3.2-15.2V66.4zm-38 100.2V183h16.4v-16.4h-16.4zm36-100.2c0-4.267-1.467-7.8-4.4-10.6-2.8-2.8-6.334-4.2-10.6-4.2h-20.2c-4.267 0-7.867 1.4-10.8 4.2-2.8 2.8-4.2 6.333-4.2 10.6v21.8h16v-1.4a84.06 84.06 0 01-.2-6c.133-2.267.466-4.333 1-6.2.533-2 1.333-3.6 2.4-4.8 1.2-1.333 2.933-2 5.2-2 2.533 0 4.733.6 6.6 1.8 1.866 1.2 2.8 3.333 2.8 6.4 0 8.667-1.267 16.267-3.8 22.8-2.4 6.4-4.934 12.4-7.6 18a266.322 266.322 0 00-5.8 13.2c-1.6 4.267-2.4 8.8-2.4 13.6v7.4h16.4c.266-5.467 1.466-10.8 3.6-16a257.818 257.818 0 016.6-14.8c2.266-4.667 4.4-9.4 6.4-14.2 2-4.933 3-9.733 3-14.4V66.4z" fill="#D9271B"/><path d="M3.303 184h-1.2V40.6h28.2v1.2l17.2 16.8v97.2h4.6v1.2l17.2 16.8v27h-48.8L3.302 184zm23-24.2V44.6h-20.2V180h42v-20.2h-21.8zm91.708-65h2.8V96l17.2 16.8V140h-20v15.8h7v1.2l17.2 16.8v27h-51.2L73.81 184h-1.2V40.6h52.4v1.2l17.2 16.8v27.2h-24.2v9zm-21.2 65v-40.6h20V98.8h-20V65h24.2V44.6h-44.4V180h44.4v-20.2h-24.2zM199.847 40.6v1.2l17.2 16.8v27h-24.8v8.2h3.4V95l17.2 16.8V139h-20.6v61.8h-27.2l-17.2-16.8h-1.2V40.6h53.2zm-49.2 4V180h20.4v-61.8h20.6V97.8h-20.6v-33h24.8V44.6h-45.2zm129.595-4v1.2l17.2 16.8v27h-15.4v115.2h-27.2l-17.2-16.8h-1.2V82.8l-14.2-14h-1.2V40.6h59.2zm-55.2 4v20.2h15.4V180h20.4V64.8h15.4V44.6h-51.2zm120.282 136.6c-3.067-1.733-5.6-4.2-7.6-7.4-1.867-3.333-2.8-6.933-2.8-10.8V61.6c0-2.933.533-5.667 1.6-8.2 1.066-2.533 2.533-4.733 4.4-6.6 2-1.867 4.266-3.333 6.8-4.4 2.533-1.2 5.266-1.8 8.2-1.8h20.2c3.866 0 7.333.933 10.4 2.8 3.2 1.867 5.733 4.333 7.6 7.4l14 13.6c1.866 1.867 3.333 4.067 4.4 6.6 1.2 2.4 1.8 5.067 1.8 8v101.4c0 2.8-.534 5.4-1.6 7.8-1.067 2.533-2.534 4.733-4.4 6.6-1.867 1.867-4.067 3.333-6.6 4.4-2.4 1.067-5 1.6-7.8 1.6h-20.2c-5.6 0-10.334-1.933-14.2-5.8l-14.2-13.8zm27.4-27.6c0 1.733-.6 3.2-1.8 4.4-1.067 1.067-2.467 1.6-4.2 1.6h-1.4c-1.734 0-3.2-.533-4.4-1.6-1.067-1.2-1.6-2.667-1.6-4.4V71c0-1.733.533-3.2 1.6-4.4 1.2-1.2 2.666-1.8 4.4-1.8h1.4c1.733 0 3.133.6 4.2 1.8 1.2 1.2 1.8 2.667 1.8 4.4v82.6zm20.4-92c0-4.667-1.667-8.667-5-12-3.334-3.333-7.334-5-12-5h-20.2c-4.667 0-8.667 1.667-12 5-3.334 3.333-5 7.333-5 12V163c0 4.667 1.666 8.667 5 12 3.333 3.333 7.333 5 12 5h20.2c4.666 0 8.666-1.667 12-5 3.333-3.333 5-7.333 5-12V61.6zM420.709 184h-1.2V40.6h41.2c3.867 0 7.333.933 10.4 2.8 3.2 1.867 5.733 4.333 7.6 7.4l14 13.6c1.867 1.867 3.333 4.067 4.4 6.6 1.2 2.4 1.8 5.067 1.8 8v54c0 3.867-.867 7.4-2.6 10.6-1.733 3.067-4.267 5.467-7.6 7.2 1.733 8 3.6 16.467 5.6 25.4 2 8.8 3.867 17 5.6 24.6h-28.2l-6.8-6.6v6.6h-27l-17.2-16.8zm57-122.4c0-4.667-1.667-8.667-5-12s-7.333-5-12-5h-37.2V180h20.2v-47.4h2.6l10.4 47.4h21l-10.8-48.6c3.2-1.2 5.8-3.267 7.8-6.2 2-2.933 3-6.133 3-9.6v-54zm-20.4 44.6c0 1.6-.6 3-1.8 4.2-1.2 1.2-2.6 1.8-4.2 1.8h-7.6V64.8h7.6c1.733 0 3.133.667 4.2 2 1.2 1.2 1.8 2.6 1.8 4.2v35.2zm81.564 77.8h-1.2V40.6h41.2c3.867 0 7.333.933 10.4 2.8 3.2 1.867 5.733 4.333 7.6 7.4l14 13.6c1.867 1.867 3.333 4.067 4.4 6.6 1.2 2.4 1.8 5.067 1.8 8v54c0 3.867-.867 7.4-2.6 10.6-1.733 3.067-4.267 5.467-7.6 7.2 1.733 8 3.6 16.467 5.6 25.4 2 8.8 3.867 17 5.6 24.6h-28.2l-6.8-6.6v6.6h-27l-17.2-16.8zm57-122.4c0-4.667-1.667-8.667-5-12s-7.333-5-12-5h-37.2V180h20.2v-47.4h2.6l10.4 47.4h21l-10.8-48.6c3.2-1.2 5.8-3.267 7.8-6.2 2-2.933 3-6.133 3-9.6v-54zm-20.4 44.6c0 1.6-.6 3-1.8 4.2-1.2 1.2-2.6 1.8-4.2 1.8h-7.6V64.8h7.6c1.733 0 3.133.667 4.2 2 1.2 1.2 1.8 2.6 1.8 4.2v35.2zm74.766-65.6v1.2l17.2 16.8v142.2h-27.2l-17.2-16.8h-1.2V40.6h28.4zm-24.4 4V180h20.4V44.6h-20.4zm56.195 136.6a21.83 21.83 0 01-7.4-7.4c-1.867-3.2-2.8-6.733-2.8-10.6V61.6c0-2.933.533-5.667 1.6-8.2 1.067-2.533 2.533-4.733 4.4-6.6a22.93 22.93 0 016.8-4.4c2.533-1.2 5.267-1.8 8.2-1.8h20.2c3.867 0 7.333.933 10.4 2.8 3.2 1.867 5.733 4.333 7.6 7.4l.2.2 13.8 13.4c1.867 1.867 3.333 4.067 4.4 6.6 1.2 2.4 1.8 5.067 1.8 8v27h-15l15 14.6v80.2h-40.6c-5.733 0-10.533-1.933-14.4-5.8l-14.2-13.8zm48-74.6h-28.4V127h8v32.8h-7.4c-1.733 0-3.2-.6-4.4-1.8-1.067-1.2-1.6-2.667-1.6-4.4V71c0-1.6.6-3 1.8-4.2 1.2-1.2 2.6-1.8 4.2-1.8 2.667 0 4.533.733 5.6 2.2 1.067 1.333 1.733 3.067 2 5.2.267 2 .267 4.2 0 6.6-.133 2.267-.2 4.333-.2 6.2h20.4V61.6c0-4.667-1.667-8.667-5-12s-7.333-5-12-5h-20.2c-4.667 0-8.667 1.667-12 5s-5 7.333-5 12v101.6c0 4.667 1.667 8.667 5 12 3.333 3.2 7.333 4.8 12 4.8h37.2v-73.4zm89.394-64.8l17.2 16.8v142.2h-27.2l-8.2-8v8h-27.2l-17.2-16.8h-1.2V40.6h28.4v1.2l7 6.8v-8h28.4v1.2zm-4 2.8h-20.4v60.8h-15V44.6h-20.4V180h20.4v-54.4h15V180h20.4V44.6zm83.956-4v1.2l17.2 16.8v27h-15.4v115.2h-27.2l-17.2-16.8h-1.2V82.8l-14.2-14h-1.2V40.6h59.2zm-55.2 4v20.2h15.4V180h20.4V64.8h15.4V44.6h-51.2zm95.483 111l-3.6-3.6h-1.2v-13.4c0-5.467.866-10.467 2.6-15 1.866-4.667 3.933-9.4 6.2-14.2l1.6-3.4h-6.2l-17.2-16.8h-1.2V61.4c0-6 2-10.933 6-14.8 4.133-4 9.133-6 15-6h20.2c3.866 0 7.4.933 10.6 2.8 3.2 1.867 5.733 4.333 7.6 7.4l14 13.6c1.866 1.867 3.333 4.067 4.4 6.6 1.066 2.4 1.603 5 1.603 7.8V104c0 5.467-1.07 10.733-3.203 15.8-2 5.067-4.267 10.133-6.8 15.2-2.4 4.933-4.6 10-6.6 15.2-2 5.2-3 11.4-3 18.6h-5l5 4.8v27.2h-27.2l-17.2-16.8h-1.2v-28.4h4.8zm-.8 4V180h20.4v-20.4h-20.4zm40-98.2c0-4.667-1.667-8.6-5-11.8-3.334-3.333-7.334-5-12-5h-20.2c-4.667 0-8.667 1.667-12 5-3.334 3.2-5 7.133-5 11.8v23.8h20.2c0-1.333-.134-3.133-.4-5.4a57.513 57.513 0 010-6.8c.266-2.267.866-4.2 1.8-5.8.933-1.6 2.533-2.4 4.8-2.4 2 0 3.733.467 5.2 1.4 1.466.933 2.2 2.533 2.2 4.8 0 7.867-1.067 14.8-3.2 20.8-2 5.867-4.2 11.4-6.6 16.6-2.4 5.067-4.667 10-6.8 14.8-2 4.8-3 9.933-3 15.4v9.4h20.4c0-5.6 1-10.933 3-16a262.07 262.07 0 016.8-15.2c2.4-5.067 4.6-10.067 6.6-15 2.133-4.933 3.2-10 3.2-15.2V61.4z" fill="#E8A603"/></svg>